<svg width="25" height="23" viewBox="0 0 25 23" fill="none" xmlns="http://www.w3.org/2000/svg">
<path d="M10.4784 8.20748V12.0072C10.4784 12.0072 8.35055 10.7913 7.5906 9.27141C6.83064 7.75151 6.67866 6.53559 5.61472 5.01568C4.55079 3.49578 1.05501 3.95175 0.447051 5.01568C-0.16091 6.07961 -0.3129 8.05549 1.05501 9.27141C2.42293 10.4873 4.85477 11.3993 4.85477 11.3993C4.85477 11.3993 6.52666 12.6152 8.04657 14.4391C9.56648 16.263 9.26248 19.3028 12.3023 19.3028C15.3421 19.3028 15.6461 15.655 16.1021 14.4391C16.558 13.2232 18.0779 12.3112 18.8379 11.3993C19.5978 10.4873 22.0297 10.9433 23.5496 9.27141C25.0695 7.59952 24.4615 6.07961 23.8536 5.01568C23.2456 3.95175 20.6618 2.73583 18.8379 5.01568C17.014 7.29554 17.3269 8.51146 16.862 9.27141C16.3971 10.0314 13.6702 12.0072 13.6702 12.0072V8.20748C13.6702 6.53559 15.0381 5.31966 15.3421 3.49578C15.6461 1.67189 14.1262 0 12.3023 0C10.4784 0 8.50254 1.06393 9.1105 3.49578C9.71847 5.92762 10.4784 6.2316 10.4784 8.20748Z" fill="black"/>
<path d="M10.3353 20.5187C4.13413 19.0596 6.33292 16.8709 8.20747 15.959L7.14354 14.2871C-2.09748 18.4212 5.42098 21.1773 10.3353 22.0386V20.5187Z" fill="black"/>
<path d="M14.2871 20.5187C20.4883 19.0596 18.2895 16.8709 16.415 15.959L17.4789 14.2871C26.7199 18.4212 19.2015 21.1773 14.2871 22.0386V20.5187Z" fill="black"/>
</svg>
