<svg width="366" height="273" viewBox="0 0 366 273" fill="none" xmlns="http://www.w3.org/2000/svg">
<path fill-rule="evenodd" clip-rule="evenodd" d="M150.284 1.1309C197.157 7.66831 200.848 62.4794 257.366 70.3181C313.884 78.1569 344.99 109.373 359.527 146.872C375.784 188.81 362.123 247.371 310.539 267.432C258.669 287.605 208.476 246.746 150.284 243.116C102.461 240.133 51.2693 272.23 14.5693 248.971C-21.4496 226.143 20.4836 182.287 21.8805 146.872C23.1951 113.546 -2.09289 78.4481 22.3916 50.6577C49.9294 19.4018 101.275 -5.70449 150.284 1.1309Z" fill="#D4F0CF"/>
<path d="M70.5128 18.3389H114.391V75.4518H70.5128V18.3389Z" fill="#B7D3A9"/>
<path d="M70.5128 75.4521H69.0894V18.3392H70.5128V75.4521Z" fill="#B7D3A9"/>
<path opacity="0.05" d="M70.5128 75.4521H69.0894V18.3392H70.5128V75.4521Z" fill="#292A2E"/>
<path opacity="0.05" d="M78.5058 28.7428H106.398V65.0482H78.5058V28.7428Z" fill="#292A2E"/>
<path opacity="0.03" d="M78.5058 28.7428H79.9594V65.0482H78.5058V28.7428Z" fill="#292A2E"/>
<path d="M34.6275 89.4971H70.5128V125.712H34.6275V89.4971Z" fill="#B7D3A9"/>
<path opacity="0.05" d="M41.1643 96.0941H63.9757V119.115H41.1643V96.0941Z" fill="#292A2E"/>
<path d="M34.6275 125.712H33.204L33.204 89.4971H34.6275L34.6275 125.712Z" fill="#B7D3A9"/>
<path opacity="0.05" d="M34.6275 125.712H33.204L33.204 89.4971H34.6275L34.6275 125.712Z" fill="#292A2E"/>
<path opacity="0.03" d="M41.1643 96.0941H42.6179V119.115H41.1643V96.0941Z" fill="#292A2E"/>
<path d="M164.168 14.6687H283.708V134.209H164.168V14.6687Z" fill="#B7D3A9"/>
<path d="M162.797 14.6687H164.168V134.209H162.797V14.6687Z" fill="#B7D3A9"/>
<path opacity="0.05" d="M162.797 14.6687H164.168V134.209H162.797V14.6687Z" fill="#292A2E"/>
<path opacity="0.05" d="M193.127 97.042V65.7663H218.746V83.9367H258.431V116.11H275.297V134.209H258.431H255.182H169.918V97.042H193.127Z" fill="#292A2E"/>
<path opacity="0.34" d="M196.801 69.1621H215.458V72.5579H196.801V69.1621Z" fill="#FFFFFA"/>
<path opacity="0.34" d="M196.801 76.199H215.458V79.5948H196.801V76.199Z" fill="#FFFFFA"/>
<path opacity="0.34" d="M196.801 83.2359H215.458V86.6317H196.801V83.2359Z" fill="#FFFFFA"/>
<path opacity="0.34" d="M173.226 100.338H176.665V103.734H173.226V100.338Z" fill="#FFFFFA"/>
<path opacity="0.34" d="M173.226 107.375H176.665V110.771H173.226V107.375Z" fill="#FFFFFA"/>
<path opacity="0.34" d="M173.226 114.412H176.665V117.808H173.226V114.412Z" fill="#FFFFFA"/>
<path opacity="0.34" d="M179.588 100.338H183.026V103.734H179.588V100.338Z" fill="#FFFFFA"/>
<path opacity="0.34" d="M179.588 107.375H183.026V110.771H179.588V107.375Z" fill="#FFFFFA"/>
<path opacity="0.34" d="M179.588 114.412H183.026V117.808H179.588V114.412Z" fill="#FFFFFA"/>
<path opacity="0.34" d="M185.777 100.338H189.216V103.734H185.777V100.338Z" fill="#FFFFFA"/>
<path opacity="0.34" d="M185.777 107.375H189.216V110.771H185.777V107.375Z" fill="#FFFFFA"/>
<path opacity="0.34" d="M185.777 114.412H189.216V117.808H185.777V114.412Z" fill="#FFFFFA"/>
<path d="M164.168 73.7685H188.221V14.6687H190.21V73.7685H255.182V14.6687H257.171V73.7685H283.708V75.7578H257.171V134.209H255.182V75.7578H190.21V134.209H188.221V75.7578H164.168V73.7685Z" fill="white"/>
<path d="M159.405 134.065H288.47V138.041H159.405V134.065Z" fill="#B7D3A9"/>
<path opacity="0.1" d="M159.405 134.065H288.47V138.041H159.405V134.065Z" fill="#292A2E"/>
<path opacity="0.1" d="M157.542 134.065H159.405V138.041H157.542V134.065Z" fill="#292A2E"/>
<path opacity="0.1" d="M157.542 134.065H159.405V138.041H157.542V134.065Z" fill="#292A2E"/>
<path opacity="0.05" d="M96.3037 255.622H102.944V260.056H96.3037V255.622Z" fill="#292A2E"/>
<path opacity="0.05" d="M54.6181 255.622H61.2584V260.056H54.6181V255.622Z" fill="#292A2E"/>
<path d="M48.5313 188.055H109.031V255.622H48.5313V188.055Z" fill="#B7D3A9"/>
<path opacity="0.03" d="M48.5313 188.055H109.031V255.622H48.5313V188.055Z" fill="#292A2E"/>
<path d="M64.5988 188.055H125.099V255.622H64.5988V188.055Z" fill="#B7D3A9"/>
<path opacity="0.05" d="M112.371 255.622H119.012V260.056H112.371V255.622Z" fill="#292A2E"/>
<path opacity="0.05" d="M70.6858 255.622H77.3262V260.056H70.6858V255.622Z" fill="#292A2E"/>
<path opacity="0.7" d="M67.8538 192.233H121.844V209.37H67.8538V192.233Z" fill="white"/>
<path opacity="0.7" d="M67.8538 213.564H121.844V230.701H67.8538V213.564Z" fill="white"/>
<path opacity="0.7" d="M67.8538 234.895H121.844V252.032H67.8538V234.895Z" fill="white"/>
<path opacity="0.05" d="M94.8488 203.199C93.5245 203.199 92.4509 202.126 92.4509 200.801C92.4509 199.477 93.5245 198.403 94.8488 198.403C96.1731 198.403 97.2467 199.477 97.2467 200.801C97.2467 202.126 96.1731 203.199 94.8488 203.199Z" fill="#292A2E"/>
<path opacity="0.05" d="M94.8488 224.53C93.5245 224.53 92.4509 223.457 92.4509 222.132C92.4509 220.808 93.5245 219.735 94.8488 219.735C96.1731 219.735 97.2467 220.808 97.2467 222.132C97.2467 223.457 96.1731 224.53 94.8488 224.53Z" fill="#292A2E"/>
<path opacity="0.05" d="M94.8488 245.861C93.5245 245.861 92.4509 244.788 92.4509 243.464C92.4509 242.139 93.5245 241.066 94.8488 241.066C96.1731 241.066 97.2467 242.139 97.2467 243.464C97.2467 244.788 96.1731 245.861 94.8488 245.861Z" fill="#292A2E"/>
<path d="M260.036 227.234C260.069 227.234 260.103 227.227 260.134 227.214C260.165 227.201 260.193 227.183 260.216 227.159C260.576 226.8 261.161 220.207 262.739 200.58C263.384 192.549 263.994 184.964 264.439 180.354C264.471 180.024 264.598 179.986 264.64 179.973C265.25 179.79 267.102 181.25 268.136 182.529C268.178 182.582 268.24 182.616 268.307 182.623C268.375 182.63 268.442 182.61 268.495 182.567C268.547 182.525 268.581 182.463 268.588 182.396C268.595 182.329 268.575 182.261 268.533 182.209C267.849 181.363 265.62 179.146 264.494 179.485C264.267 179.553 263.984 179.751 263.933 180.305C263.487 184.919 262.877 192.506 262.232 200.539C261.273 212.467 260.187 225.979 259.83 226.83C259.803 226.868 259.787 226.913 259.783 226.96C259.78 227.006 259.789 227.053 259.81 227.095C259.832 227.137 259.864 227.172 259.904 227.196C259.944 227.221 259.99 227.234 260.037 227.234H260.036Z" fill="#494949"/>
<path d="M265.094 188.813C260.863 185.421 259.46 180.142 261.962 177.021C264.463 173.9 269.921 174.12 274.153 177.512C278.385 180.904 279.787 186.184 277.286 189.305C274.784 192.425 269.326 192.205 265.094 188.813Z" fill="#478E2E"/>
<path opacity="0.2" d="M265.094 188.813C260.863 185.421 259.46 180.142 261.962 177.021C264.463 173.9 269.921 174.12 274.153 177.512C278.385 180.904 279.787 186.184 277.286 189.305C274.784 192.425 269.326 192.205 265.094 188.813Z" fill="white"/>
<path d="M276.1 190.098C276.124 190.098 276.148 190.091 276.168 190.078C276.189 190.065 276.205 190.046 276.215 190.025C276.226 190.003 276.23 189.978 276.226 189.954C276.223 189.93 276.214 189.908 276.198 189.889L264.138 175.346C264.127 175.333 264.114 175.322 264.1 175.314C264.085 175.306 264.069 175.302 264.052 175.3C264.035 175.299 264.018 175.3 264.002 175.305C263.986 175.31 263.971 175.318 263.959 175.329C263.946 175.34 263.935 175.353 263.927 175.368C263.919 175.382 263.915 175.399 263.913 175.415C263.911 175.432 263.913 175.449 263.918 175.465C263.923 175.481 263.931 175.496 263.942 175.509L276.002 190.052C276.014 190.066 276.029 190.078 276.046 190.086C276.063 190.094 276.081 190.098 276.1 190.098Z" fill="white"/>
<path d="M257.406 224.116C257.435 224.116 257.463 224.111 257.49 224.101C257.554 224.079 257.606 224.033 257.636 223.972C257.665 223.911 257.669 223.841 257.647 223.777L253.117 210.749C252.983 210.366 252.756 210.023 252.456 209.751C252.155 209.479 251.792 209.286 251.398 209.191C251.004 209.096 250.592 209.101 250.201 209.207C249.809 209.312 249.45 209.513 249.157 209.793L246.762 212.081C246.713 212.128 246.685 212.192 246.683 212.26C246.681 212.327 246.707 212.393 246.754 212.442C246.8 212.491 246.865 212.519 246.932 212.521C247 212.522 247.065 212.497 247.114 212.45L249.509 210.162C249.741 209.941 250.024 209.782 250.333 209.699C250.642 209.616 250.967 209.612 251.278 209.687C251.589 209.762 251.876 209.914 252.114 210.129C252.351 210.343 252.53 210.614 252.635 210.917L257.165 223.945C257.183 223.995 257.215 224.038 257.258 224.069C257.302 224.099 257.353 224.116 257.406 224.116Z" fill="#494949"/>
<path d="M240.071 219.293C236.935 216.811 237.122 211.351 240.488 207.099C243.854 202.847 249.125 201.412 252.261 203.894C255.397 206.376 255.21 211.836 251.844 216.088C248.478 220.341 243.207 221.776 240.071 219.293Z" fill="#478E2E"/>
<path d="M262.095 226.403C262.152 226.403 262.207 226.383 262.252 226.348C262.297 226.312 262.329 226.263 262.342 226.207L269.945 194.421C269.997 194.204 270.107 194.006 270.265 193.848C270.422 193.69 270.62 193.579 270.836 193.526C271.053 193.474 271.279 193.482 271.491 193.549C271.704 193.617 271.893 193.742 272.039 193.911L274.382 196.619C274.404 196.645 274.431 196.667 274.461 196.683C274.491 196.699 274.524 196.708 274.558 196.711C274.592 196.714 274.626 196.71 274.659 196.7C274.691 196.689 274.721 196.672 274.747 196.65C274.772 196.628 274.793 196.6 274.809 196.57C274.824 196.539 274.832 196.506 274.834 196.472C274.836 196.438 274.832 196.404 274.82 196.372C274.809 196.34 274.791 196.31 274.768 196.285L272.425 193.577C272.218 193.338 271.948 193.16 271.647 193.063C271.345 192.967 271.023 192.956 270.715 193.031C270.408 193.106 270.126 193.264 269.903 193.488C269.68 193.712 269.522 193.994 269.448 194.302L261.847 226.088C261.831 226.154 261.842 226.224 261.877 226.281C261.913 226.339 261.97 226.38 262.035 226.396C262.055 226.4 262.075 226.403 262.095 226.403Z" fill="#494949"/>
<path d="M264.9 203.68C263.975 198.336 266.421 193.452 270.362 192.77C274.303 192.089 278.247 195.868 279.172 201.212C280.096 206.556 277.65 211.441 273.709 212.123C269.768 212.804 265.824 209.024 264.9 203.68Z" fill="#478E2E"/>
<path d="M260.036 227.234C260.046 227.234 260.057 227.233 260.067 227.232C260.101 227.228 260.133 227.217 260.162 227.201C260.191 227.184 260.217 227.162 260.237 227.136C260.258 227.109 260.273 227.079 260.282 227.047C260.291 227.014 260.294 226.981 260.289 226.947L255.435 187.533C255.382 187.103 255.206 186.698 254.929 186.367C254.651 186.035 254.284 185.79 253.87 185.662C253.457 185.534 253.016 185.528 252.599 185.645C252.183 185.762 251.809 185.997 251.523 186.321L245.974 192.605C245.952 192.63 245.935 192.659 245.924 192.691C245.913 192.723 245.908 192.756 245.911 192.79C245.913 192.823 245.921 192.856 245.936 192.886C245.951 192.916 245.971 192.943 245.996 192.965C246.021 192.987 246.051 193.004 246.082 193.015C246.114 193.026 246.148 193.031 246.181 193.029C246.214 193.026 246.247 193.018 246.277 193.003C246.307 192.988 246.334 192.968 246.356 192.943L251.905 186.658C252.126 186.408 252.415 186.226 252.737 186.136C253.059 186.046 253.4 186.05 253.72 186.149C254.039 186.248 254.323 186.437 254.538 186.694C254.752 186.95 254.888 187.263 254.929 187.595L259.783 227.01C259.791 227.071 259.821 227.128 259.867 227.169C259.914 227.211 259.974 227.233 260.036 227.234Z" fill="#494949"/>
<path d="M240.284 196.097C238.348 192.597 240.625 187.632 245.371 185.007C250.117 182.382 255.533 183.091 257.469 186.591C259.405 190.091 257.127 195.056 252.382 197.681C247.636 200.306 242.219 199.597 240.284 196.097Z" fill="#478E2E"/>
<path opacity="0.2" d="M240.071 219.293C236.935 216.811 237.122 211.351 240.488 207.099C243.854 202.847 249.125 201.412 252.261 203.894C255.397 206.376 255.21 211.836 251.844 216.088C248.478 220.341 243.207 221.776 240.071 219.293Z" fill="white"/>
<path opacity="0.5" d="M264.9 203.68C263.975 198.336 266.421 193.452 270.362 192.77C274.303 192.089 278.247 195.868 279.172 201.212C280.096 206.556 277.65 211.441 273.709 212.123C269.768 212.804 265.824 209.024 264.9 203.68Z" fill="white"/>
<path opacity="0.5" d="M240.284 196.097C238.348 192.597 240.625 187.632 245.371 185.007C250.117 182.382 255.533 183.091 257.469 186.591C259.405 190.091 257.127 195.056 252.382 197.681C247.636 200.306 242.219 199.597 240.284 196.097Z" fill="white"/>
<path d="M253.827 260.677H266.246L268.304 220.944H251.77L253.827 260.677Z" fill="#292A2E"/>
<path opacity="0.3" d="M253.827 260.677H266.246L268.304 220.944H251.77L253.827 260.677Z" fill="white"/>
<path d="M240.071 219.421C240.09 219.421 240.109 219.417 240.126 219.408C240.143 219.4 240.159 219.388 240.17 219.373L252.36 203.973C252.371 203.96 252.378 203.945 252.383 203.929C252.388 203.913 252.389 203.896 252.387 203.879C252.385 203.863 252.38 203.847 252.372 203.832C252.364 203.817 252.353 203.804 252.339 203.794C252.326 203.784 252.311 203.776 252.295 203.771C252.279 203.767 252.262 203.765 252.246 203.767C252.229 203.769 252.213 203.774 252.198 203.783C252.184 203.791 252.171 203.802 252.16 203.815L239.971 219.214C239.956 219.233 239.946 219.256 239.944 219.28C239.941 219.303 239.945 219.327 239.956 219.349C239.966 219.371 239.982 219.389 240.003 219.402C240.023 219.414 240.047 219.421 240.071 219.421Z" fill="white"/>
<path d="M241.094 197.331C241.121 197.331 241.147 197.322 241.169 197.306L256.767 185.916C256.795 185.896 256.813 185.866 256.818 185.833C256.823 185.8 256.815 185.765 256.795 185.738C256.775 185.711 256.745 185.692 256.712 185.687C256.678 185.682 256.644 185.69 256.617 185.71L241.019 197.1C240.997 197.116 240.981 197.138 240.973 197.164C240.965 197.19 240.966 197.217 240.974 197.242C240.983 197.268 240.999 197.29 241.021 197.305C241.042 197.321 241.068 197.33 241.095 197.33L241.094 197.331Z" fill="white"/>
<path d="M274.342 211.956C274.353 211.956 274.365 211.955 274.375 211.952C274.408 211.943 274.435 211.921 274.452 211.892C274.469 211.863 274.473 211.829 274.465 211.796L269.499 193.192C269.495 193.175 269.488 193.16 269.478 193.146C269.468 193.133 269.455 193.121 269.44 193.113C269.426 193.104 269.41 193.098 269.393 193.096C269.376 193.094 269.359 193.095 269.343 193.099C269.326 193.104 269.311 193.111 269.298 193.122C269.284 193.132 269.273 193.145 269.265 193.16C269.256 193.174 269.251 193.191 269.249 193.207C269.247 193.224 269.248 193.241 269.253 193.257L274.218 211.861C274.226 211.889 274.242 211.913 274.264 211.93C274.287 211.947 274.314 211.956 274.342 211.956Z" fill="white"/>
<path d="M61.0272 209.232L60.5869 209.28L66.0234 258.961L66.4638 258.913L61.0272 209.232Z" fill="#292A2E"/>
<path d="M75.1078 230.921L72.4332 257.38L72.8739 257.425L75.5485 230.966L75.1078 230.921Z" fill="#292A2E"/>
<path d="M79.707 254.182H59.8617V260.622H79.707V254.182Z" fill="#292A2E"/>
<path opacity="0.2" d="M79.707 254.182H59.8617V260.622H79.707V254.182Z" fill="white"/>
<path d="M91.6711 242.323C95.4305 237.326 93.6384 229.634 87.6682 225.142C81.698 220.65 73.8106 221.059 70.0511 226.056C66.2917 231.053 68.0838 238.745 74.054 243.237C80.0242 247.729 87.9116 247.32 91.6711 242.323Z" fill="#478E2E"/>
<path opacity="0.2" d="M91.6711 242.323C95.4305 237.326 93.6384 229.634 87.6682 225.142C81.698 220.65 73.8106 221.059 70.0511 226.056C66.2917 231.053 68.0838 238.745 74.054 243.237C80.0242 247.729 87.9116 247.32 91.6711 242.323Z" fill="white"/>
<path opacity="0.5" d="M91.6701 242.324C91.4176 242.661 91.1421 242.98 90.8456 243.279C86.7072 245.923 80.5988 245.507 75.753 241.86C69.7833 237.369 67.9916 229.677 71.7515 224.681C72.0042 224.344 72.279 224.025 72.574 223.725C76.7144 221.079 82.8208 221.497 87.6686 225.142C93.638 229.635 95.4298 237.327 91.6701 242.324Z" fill="white"/>
<path d="M63.9747 223.366C69.889 218.801 71.4965 210.971 67.5651 205.878C63.6337 200.785 55.6522 200.357 49.7378 204.922C43.8235 209.488 42.2161 217.318 46.1475 222.411C50.0789 227.504 58.0604 227.931 63.9747 223.366Z" fill="#478E2E"/>
<path opacity="0.2" d="M62.1015 222.056C57.5212 225.594 51.7002 226.133 47.4807 223.83C46.9924 223.4 46.5464 222.924 46.1487 222.409C42.2166 217.318 43.824 209.487 49.7381 204.922C54.3184 201.387 60.1394 200.846 64.3569 203.147C64.8463 203.577 65.2929 204.054 65.6906 204.57C69.6229 209.661 68.0156 217.492 62.1015 222.056Z" fill="white"/>
<path d="M99.2075 28.7041H245.762C249.987 28.7041 253.413 32.1293 253.413 36.3545V198.028C253.413 202.254 249.987 205.679 245.762 205.679H99.2075C94.9823 205.679 91.557 202.254 91.557 198.028V36.3545C91.557 32.1293 94.9823 28.7041 99.2075 28.7041Z" fill="white"/>
<path d="M99.3524 205.718H245.908C248.004 205.715 250.013 204.881 251.495 203.399C252.977 201.917 253.811 199.908 253.814 197.812V36.1383C253.811 34.0424 252.977 32.033 251.495 30.5509C250.013 29.0689 248.004 28.2352 245.908 28.2328H99.3524C97.2564 28.2352 95.247 29.0688 93.765 30.5509C92.2829 32.0329 91.4492 34.0423 91.4469 36.1383V197.812C91.4492 199.908 92.2829 201.917 93.765 203.399C95.247 204.882 97.2564 205.715 99.3524 205.718ZM245.908 28.7428C247.869 28.7451 249.749 29.525 251.135 30.9114C252.521 32.2979 253.301 34.1776 253.304 36.1383V197.812C253.301 199.773 252.521 201.653 251.135 203.039C249.749 204.425 247.869 205.205 245.908 205.208H99.3524C97.3917 205.205 95.5119 204.425 94.1255 203.039C92.739 201.653 91.9592 199.773 91.9569 197.812V36.1383C91.9592 34.1776 92.7391 32.2979 94.1255 30.9114C95.512 29.525 97.3917 28.7451 99.3524 28.7428H245.908Z" fill="#292A2E"/>
<path d="M91.7021 36.1373V42.0506H253.557V36.1373C253.557 34.1082 252.751 32.1623 251.316 30.7276C249.881 29.2928 247.935 28.4868 245.906 28.4868H99.3526C97.3236 28.4868 95.3776 29.2928 93.9429 30.7276C92.5082 32.1623 91.7021 34.1082 91.7021 36.1373Z" fill="#292A2E"/>
<path opacity="0.1" d="M226.57 89.0159C216.24 89.0159 207.866 80.6417 207.866 70.3117C207.866 59.9817 216.24 51.6076 226.57 51.6076C236.9 51.6076 245.274 59.9817 245.274 70.3117C245.274 80.6417 236.9 89.0159 226.57 89.0159Z" fill="#1CB33D"/>
<path opacity="0.2" d="M226.57 69.5069C222.982 69.5069 220.074 66.5983 220.074 63.0104C220.074 59.4224 222.982 56.5138 226.57 56.5138C230.158 56.5138 233.067 59.4224 233.067 63.0104C233.067 66.5983 230.158 69.5069 226.57 69.5069Z" fill="#1CB33D"/>
<path opacity="0.2" d="M212.509 82.6456C214.264 84.6471 216.427 86.2508 218.852 87.3494C221.277 88.448 223.909 89.0162 226.571 89.0159C229.233 89.0157 231.865 88.447 234.29 87.348C236.714 86.249 238.877 84.6449 240.632 82.643C239.733 79.6112 237.878 76.9512 235.344 75.0596C232.809 73.168 229.732 72.1462 226.569 72.1465C223.407 72.1467 220.329 73.1691 217.796 75.0612C215.262 76.9532 213.407 79.6136 212.509 82.6456Z" fill="#1CB33D"/>
<path opacity="0.2" d="M217.735 101.776H243.088C244.003 101.776 244.744 102.517 244.744 103.432C244.744 104.347 244.003 105.089 243.088 105.089H217.735C216.821 105.089 216.079 104.347 216.079 103.432C216.079 102.517 216.821 101.776 217.735 101.776Z" fill="#1CB33D"/>
<path opacity="0.1" d="M157.496 52.8638H197.345C198.833 52.8638 200.039 54.07 200.039 55.558V61.1462C200.039 62.6342 198.833 63.8404 197.345 63.8404H157.496C156.008 63.8404 154.801 62.6342 154.801 61.1462V55.558C154.801 54.07 156.008 52.8638 157.496 52.8638Z" fill="#1CB33D"/>
<path opacity="0.2" d="M139.035 69.9088H198.764C199.468 69.9088 200.039 70.4797 200.039 71.1839C200.039 71.8881 199.468 72.459 198.764 72.459H139.035C138.331 72.459 137.76 71.8881 137.76 71.1839C137.76 70.4797 138.331 69.9088 139.035 69.9088Z" fill="#1CB33D"/>
<path opacity="0.2" d="M139.035 77.5593H198.764C199.468 77.5593 200.039 78.1301 200.039 78.8343C200.039 79.5386 199.468 80.1094 198.764 80.1094H139.035C138.331 80.1094 137.76 79.5386 137.76 78.8343C137.76 78.1301 138.331 77.5593 139.035 77.5593Z" fill="#1CB33D"/>
<path opacity="0.2" d="M149.236 85.2097H198.764C199.468 85.2097 200.039 85.7806 200.039 86.4848C200.039 87.189 199.468 87.7599 198.764 87.7599H149.236C148.532 87.7599 147.961 87.189 147.961 86.4848C147.961 85.7806 148.532 85.2097 149.236 85.2097Z" fill="#1CB33D"/>
<path opacity="0.1" d="M180.086 109.868H242.349C243.672 109.868 244.744 110.94 244.744 112.263V118.179C244.744 119.502 243.672 120.574 242.349 120.574H180.086C178.763 120.574 177.691 119.502 177.691 118.179V112.263C177.691 110.94 178.763 109.868 180.086 109.868Z" fill="#1CB33D"/>
<path opacity="0.2" d="M141.395 101.776H166.747C167.662 101.776 168.403 102.517 168.403 103.432C168.403 104.347 167.662 105.089 166.747 105.089H141.395C140.48 105.089 139.738 104.347 139.738 103.432C139.738 102.517 140.48 101.776 141.395 101.776Z" fill="#1CB33D"/>
<path opacity="0.1" d="M103.745 109.868H166.008C167.331 109.868 168.403 110.94 168.403 112.263V118.179C168.403 119.502 167.331 120.574 166.008 120.574H103.745C102.422 120.574 101.35 119.502 101.35 118.179V112.263C101.35 110.94 102.422 109.868 103.745 109.868Z" fill="#1CB33D"/>
<path opacity="0.2" d="M217.735 129.426H243.088C244.003 129.426 244.744 130.168 244.744 131.083C244.744 131.997 244.003 132.739 243.088 132.739H217.735C216.821 132.739 216.079 131.997 216.079 131.083C216.079 130.168 216.821 129.426 217.735 129.426Z" fill="#1CB33D"/>
<path opacity="0.1" d="M180.086 137.518H242.349C243.672 137.518 244.744 138.59 244.744 139.913V145.83C244.744 147.153 243.672 148.225 242.349 148.225H180.086C178.763 148.225 177.691 147.153 177.691 145.83V139.913C177.691 138.59 178.763 137.518 180.086 137.518Z" fill="#1CB33D"/>
<path opacity="0.2" d="M141.395 129.426H166.747C167.662 129.426 168.403 130.168 168.403 131.083C168.403 131.997 167.662 132.739 166.747 132.739H141.395C140.48 132.739 139.738 131.997 139.738 131.083C139.738 130.168 140.48 129.426 141.395 129.426Z" fill="#1CB33D"/>
<path opacity="0.1" d="M103.745 137.518H166.008C167.331 137.518 168.403 138.59 168.403 139.913V145.83C168.403 147.153 167.331 148.225 166.008 148.225H103.745C102.422 148.225 101.35 147.153 101.35 145.83V139.913C101.35 138.59 102.422 137.518 103.745 137.518Z" fill="#1CB33D"/>
<path opacity="0.2" d="M217.735 157.076H243.088C244.003 157.076 244.744 157.818 244.744 158.733C244.744 159.648 244.003 160.39 243.088 160.39H217.735C216.821 160.39 216.079 159.648 216.079 158.733C216.079 157.818 216.821 157.076 217.735 157.076Z" fill="#1CB33D"/>
<path opacity="0.1" d="M180.086 165.169H242.349C243.672 165.169 244.744 166.241 244.744 167.563V173.48C244.744 174.803 243.672 175.875 242.349 175.875H180.086C178.763 175.875 177.691 174.803 177.691 173.48V167.563C177.691 166.241 178.763 165.169 180.086 165.169Z" fill="#1CB33D"/>
<path opacity="0.2" d="M141.395 157.076H166.747C167.662 157.076 168.403 157.818 168.403 158.733C168.403 159.648 167.662 160.39 166.747 160.39H141.395C140.48 160.39 139.738 159.648 139.738 158.733C139.738 157.818 140.48 157.076 141.395 157.076Z" fill="#1CB33D"/>
<path opacity="0.1" d="M103.745 165.169H166.008C167.331 165.169 168.403 166.241 168.403 167.563V173.48C168.403 174.803 167.331 175.875 166.008 175.875H103.745C102.422 175.875 101.35 174.803 101.35 173.48V167.563C101.35 166.241 102.422 165.169 103.745 165.169Z" fill="#1CB33D"/>
<path opacity="0.2" d="M153.17 184.217H192.089C193.66 184.217 194.933 185.49 194.933 187.06V192.31C194.933 193.88 193.66 195.153 192.089 195.153H153.17C151.6 195.153 150.327 193.88 150.327 192.31V187.06C150.327 185.49 151.6 184.217 153.17 184.217Z" fill="#1CB33D"/>
<path d="M150.356 60.4503L146.235 65.3175L146.49 64.4818C146.567 64.2105 146.538 63.9199 146.409 63.669C146.28 63.4181 146.061 63.2255 145.795 63.1302C145.657 63.0858 145.51 63.0701 145.365 63.0841C145.22 63.0981 145.08 63.1415 144.952 63.2116C144.824 63.2818 144.712 63.3772 144.623 63.492C144.533 63.6069 144.468 63.7388 144.431 63.8797L142.547 70.974C142.309 71.8696 142.43 72.8226 142.885 73.6298C143.34 74.437 144.093 75.0344 144.982 75.2948C146.014 75.597 147.113 75.584 148.138 75.2574C149.163 74.9309 150.068 74.3057 150.735 73.462L153.752 69.6339C153.912 69.4381 154 69.1928 154.001 68.9395C154.001 68.6862 153.914 68.4405 153.754 68.2441C153.606 68.0695 153.406 67.9469 153.184 67.8941C152.961 67.8413 152.727 67.8612 152.516 67.9508C152.512 67.934 152.503 67.9186 152.491 67.9064C152.478 67.8957 152.464 67.8881 152.448 67.8845C152.432 67.8808 152.415 67.8812 152.399 67.8855L152.958 67.1791C153.129 66.9721 153.22 66.7101 153.213 66.4415C153.206 66.1729 153.102 65.9159 152.921 65.7179C152.734 65.5279 152.484 65.4137 152.219 65.3976C151.954 65.3815 151.692 65.4646 151.484 65.6307C151.483 65.6194 151.479 65.6085 151.474 65.5985L151.703 65.3088C151.853 65.1104 151.935 64.8691 151.937 64.6205C151.939 64.3719 151.861 64.1292 151.714 63.9284C151.535 63.7124 151.278 63.575 150.999 63.5459C150.72 63.5168 150.44 63.5982 150.22 63.7726L150.206 63.7581L151.937 61.7131C152.026 61.6083 152.093 61.4864 152.133 61.355C152.173 61.2235 152.186 61.0853 152.171 60.9487C152.156 60.8121 152.113 60.68 152.045 60.5605C151.978 60.4409 151.886 60.3365 151.777 60.2534C151.559 60.1 151.291 60.035 151.028 60.0716C150.764 60.1081 150.524 60.2435 150.356 60.4503Z" fill="#E98862"/>
<path opacity="0.2" d="M150.262 63.8874C150.258 63.8984 150.252 63.9086 150.244 63.9175L148.538 65.8852C148.529 65.8952 148.519 65.9035 148.507 65.9094C148.495 65.9154 148.482 65.919 148.469 65.92C148.456 65.921 148.443 65.9193 148.43 65.9152C148.417 65.911 148.406 65.9044 148.396 65.8958C148.386 65.8871 148.377 65.8766 148.371 65.8647C148.365 65.8529 148.362 65.84 148.361 65.8268C148.36 65.8135 148.361 65.8002 148.366 65.7876C148.37 65.775 148.376 65.7634 148.385 65.7533L150.09 63.7864C150.106 63.7699 150.127 63.7593 150.15 63.7564C150.173 63.7534 150.196 63.7582 150.215 63.77C150.235 63.7818 150.25 63.7999 150.258 63.8214C150.266 63.8429 150.267 63.8665 150.26 63.8884L150.262 63.8874Z" fill="#0C0C0C"/>
<path opacity="0.2" d="M151.481 65.6779C151.477 65.6885 151.472 65.6984 151.464 65.7072L150.136 67.2628C150.118 67.2814 150.094 67.2925 150.068 67.2938C150.043 67.2951 150.017 67.2865 149.998 67.2698C149.978 67.2531 149.966 67.2296 149.963 67.204C149.96 67.1784 149.967 67.1527 149.983 67.1322L151.311 65.5766C151.327 65.5584 151.348 65.5462 151.372 65.5423C151.395 65.5384 151.419 65.543 151.44 65.5552C151.46 65.5675 151.476 65.5866 151.483 65.6092C151.491 65.6318 151.491 65.6564 151.482 65.6786L151.481 65.6779Z" fill="#0C0C0C"/>
<path opacity="0.2" d="M152.518 68.0184C152.514 68.0299 152.507 68.0406 152.499 68.0498L151.853 68.7699C151.844 68.7798 151.834 68.7878 151.822 68.7935C151.81 68.7992 151.797 68.8026 151.784 68.8033C151.771 68.804 151.757 68.8022 151.745 68.7978C151.733 68.7934 151.721 68.7866 151.711 68.7778C151.701 68.769 151.693 68.7584 151.688 68.7465C151.682 68.7346 151.679 68.7216 151.678 68.7085C151.677 68.6953 151.679 68.6821 151.683 68.6696C151.688 68.6571 151.695 68.6456 151.703 68.6358L152.348 67.9154C152.363 67.8982 152.385 67.8871 152.408 67.8838C152.431 67.8805 152.454 67.8852 152.474 67.8972C152.494 67.9092 152.509 67.9278 152.517 67.9497C152.525 67.9716 152.525 67.9955 152.517 68.0174L152.518 68.0184Z" fill="#0C0C0C"/>
<path d="M100.438 109.268L136.418 106.75C137.716 106.659 138.961 106.202 140.011 105.433C141.06 104.663 141.869 103.611 142.345 102.4L153.721 73.462L140.905 68.4239L131.12 93.3162L99.4781 95.5308L100.438 109.268Z" fill="#1CB33D"/>
<path d="M79.5476 249.142C79.5476 249.142 80.699 255.109 86.2872 255.443C91.8753 255.777 90.6635 260.227 90.6635 260.227H69.3087V249.558L79.5476 249.142Z" fill="#1CB33D"/>
<path d="M72.9607 140.268C72.9607 140.268 73.0278 138.473 73.0135 142.543C72.9607 157.724 72.6973 175.064 72.0536 185.211C71.0188 201.523 68.3661 252.951 68.3661 252.951L82.3986 252.833L95.9994 139.651L72.9607 140.268Z" fill="#262626"/>
<path d="M104.529 249.142C104.529 249.142 105.681 255.109 111.269 255.443C116.857 255.777 115.645 260.227 115.645 260.227H94.2903V249.558L104.529 249.142Z" fill="#1CB33D"/>
<path d="M111.324 141.446C111.324 141.446 112.567 193.331 112.384 195.867L107.166 252.557L93.3654 252.812L94.7101 193.816C94.7101 193.816 93.7614 177.541 89.8296 162.43C87.8177 154.674 86.6069 146.732 86.2163 138.729L111.324 141.446Z" fill="#262626"/>
<path d="M72.8082 140.266L72.7623 140.269C72.7623 140.269 72.7955 139.384 72.8082 140.266Z" fill="#333333"/>
<path d="M113.299 112.647C113.009 116.047 111.602 137.259 111.324 141.446H72.9768C72.76 137.669 71.7874 121.153 70.966 113.767C70.1818 106.719 68.6433 103.19 69.771 101.107C71.6137 97.7013 76.6493 95.7333 80.0828 95.2684C82.1795 94.9846 85.3328 94.7811 85.3328 94.7811C85.3328 94.7811 85.5998 100.183 91.9665 100.483C100.633 100.891 100.055 94.7811 100.097 94.7811C101.502 94.7811 109.677 95.4413 111.485 96.8329C114.646 99.2668 113.913 105.442 113.299 112.647Z" fill="#1CB33D"/>
<path d="M113.828 108.387C113.861 108.387 113.892 108.374 113.916 108.352C113.94 108.33 113.954 108.299 113.956 108.267L114.264 102.868C114.266 102.834 114.254 102.801 114.232 102.775C114.209 102.75 114.178 102.735 114.144 102.733C114.11 102.731 114.077 102.743 114.052 102.766C114.027 102.788 114.012 102.819 114.009 102.853L113.7 108.252C113.698 108.286 113.71 108.319 113.732 108.344C113.755 108.369 113.786 108.384 113.82 108.386L113.828 108.387Z" fill="#0C0C0C"/>
<path d="M64.6858 141.224C63.5579 141.224 62.4467 140.951 61.4469 140.429C60.447 139.907 59.5881 139.152 58.9431 138.226C58.2982 137.301 57.8863 136.233 57.7426 135.115C57.5989 133.996 57.7277 132.859 58.1178 131.801C58.5139 130.727 67.8016 106.132 69.5698 101.575L82.6621 106.88C81.6675 109.442 78.0659 119.154 75.172 126.978L79.9796 126.455L81.4929 140.375L65.4434 141.183C65.1918 141.21 64.9389 141.224 64.6858 141.224Z" fill="#1CB33D"/>
<path d="M104.666 94.3154C104.623 94.3098 103.446 98.7364 94.2666 98.0476C87.9116 97.5714 86.3611 93.2456 86.2163 93.2456C86.9015 93.1 88.0141 92.9488 88.3186 92.7866C89.3193 92.249 90.0481 91.5944 90.4151 90.1898C90.702 89.0911 90.8486 84.8622 90.8486 82.7405L100.628 84.938C100.492 87.3315 99.5375 92.8799 102.881 93.862C103.437 94.0242 104.037 94.1736 104.666 94.3154Z" fill="#E98862"/>
<path d="M100.289 89.6433C96.4336 89.9475 91.4815 88.3197 90.5407 83.1763L89.692 78.535C88.7513 73.3916 90.6902 68.7279 95.5319 67.8422C100.375 66.9565 104.757 70.464 105.698 75.6074L106.073 77.6621C106.435 79.6359 107.167 89.1006 100.289 89.6433Z" fill="#E98862"/>
<path d="M103.864 84.9209C103.171 81.444 102.854 79.1241 102.891 76.6767C103.866 74.9681 103.61 73.0045 103.388 72.1568C104.059 72.5832 104.848 72.7857 105.642 72.7349C105.642 72.7349 104.03 66.2657 98.5524 64.5249C97.545 64.1327 94.9727 63.6375 91.5573 64.1059C88.6521 64.5043 81.4915 66.6765 80.4684 74.7383V74.7429C80.4345 75.0102 79.747 82.438 78.3773 86.0019C76.5345 90.7929 73.9476 92.2814 74.0132 97.8091C74.0976 104.919 87.169 105.866 95.052 105.334C102.935 104.802 107.337 102.209 107.395 97.0854C107.455 91.3442 105.248 91.8774 103.864 84.9209Z" fill="#0A0A0A"/>
<path d="M72.157 113.91L73.0992 141.443L72.8444 141.452L71.9022 113.919L72.157 113.91Z" fill="#0C0C0C"/>
<path d="M104 157C104 157 104.719 168.756 104.851 171.516C105.159 177.899 105.266 184.507 105.266 192L108 172.358C108 172.358 106.001 166.202 104 157Z" fill="#0A0A0A"/>
<path d="M295.439 77.141C295.439 77.141 292.8 74.8566 292.436 69.9804C292.153 66.2062 295.44 68.8584 295.44 68.8584C295.44 68.8584 295.263 66.1379 297.209 66.5377C299.155 66.9376 300.065 69.8432 300.065 69.8432" fill="#0C0C0C"/>
<path d="M307.341 67.5338C307.341 67.5338 317.019 69.232 312.61 82.2046H309.985" fill="#0C0C0C"/>
<path d="M313.736 249.598C313.736 249.598 312.584 255.565 306.996 255.899C301.408 256.233 302.619 260.683 302.619 260.683H323.974V250.014L313.736 249.598Z" fill="#1CB33D"/>
<path d="M325.423 140.724C325.423 140.724 325.356 138.93 325.37 142.999C325.423 158.18 324.917 253.407 324.917 253.407L310.884 253.289L302.384 140.107L325.423 140.724Z" fill="#262626"/>
<path d="M289.774 249.598C289.774 249.598 288.622 255.565 283.034 255.899C277.446 256.233 278.658 260.683 278.658 260.683H300.013V250.014L289.774 249.598Z" fill="#1CB33D"/>
<path d="M287.06 141.902C287.06 141.902 285.307 193.787 285.489 196.323L287.137 253.013L300.938 253.268L303.163 194.271C303.163 194.271 304.622 177.998 308.554 162.886C310.566 155.13 311.776 147.188 312.167 139.185L287.06 141.902Z" fill="#262626"/>
<path d="M305.266 178.689L304.115 161.09C304.115 161.09 302.933 168.406 302.933 174.712C302.933 177.795 303.568 189.999 303.568 189.999L305.266 178.689Z" fill="#0A0A0A"/>
<path d="M296.442 95.6914C296.485 95.6858 296.962 103.595 306.149 102.905C312.51 102.429 314.778 95.6802 314.924 95.6802C314.238 95.5346 313.39 95.3132 313.054 95.2375C312.319 95.0671 311.655 94.6772 311.148 94.1198C310.64 93.5623 310.315 92.8637 310.215 92.1168C310.029 90.9948 310.344 85.2605 310.247 84.1262L300.484 86.3055C300.62 88.7009 301.575 94.2544 298.228 95.2372C297.671 95.3999 297.071 95.5494 296.442 95.6914Z" fill="#E98862"/>
<path opacity="0.52" d="M300.347 92.9679C300.5 92.4749 300.598 91.9667 300.64 91.4523C300.748 90.2787 300.726 89.0969 300.577 87.928C302.561 87.6601 304.431 86.841 305.973 85.5637C306.154 86.2334 307.151 89.1594 306.875 89.7952C306.353 90.9981 303.901 92.9679 300.347 92.9679Z" fill="#0C0C0C"/>
<path d="M302.08 91.057C305.946 90.9698 310.709 88.8496 311.125 83.6373L311.5 78.9341C311.916 73.7215 309.515 69.2776 304.607 68.8864C299.7 68.4947 295.694 72.4276 295.278 77.6401L295.112 79.7223C295.067 80.4382 295.072 81.1563 295.125 81.8716C295.252 83.7633 295.451 86.6404 296.594 88.6532C297.673 90.5536 299.61 91.1126 302.08 91.057Z" fill="#E98862"/>
<path opacity="0.52" d="M300.616 86.1689C299.82 86.1516 299.04 85.9476 298.338 85.5734C298.308 85.5585 298.286 85.5325 298.276 85.5011C298.266 85.4698 298.269 85.4357 298.283 85.4064C298.298 85.377 298.324 85.3548 298.356 85.3446C298.387 85.3344 298.421 85.3371 298.451 85.352C299.966 86.1217 301.389 86.1191 302.565 85.3449C302.589 85.3284 302.614 85.3132 302.639 85.2995C302.669 85.2851 302.703 85.283 302.734 85.2937C302.765 85.3045 302.791 85.3271 302.805 85.3568C302.82 85.3864 302.822 85.4205 302.811 85.4517C302.8 85.4829 302.778 85.5085 302.748 85.5229C302.739 85.528 302.723 85.5385 302.702 85.5525C302.084 85.9609 301.357 86.1756 300.616 86.1689Z" fill="#0C0C0C"/>
<path opacity="0.52" d="M300.574 87.3465C300.43 87.3458 300.287 87.3327 300.145 87.3075C300.129 87.3047 300.114 87.2987 300.1 87.29C300.086 87.2812 300.074 87.2699 300.065 87.2565C300.055 87.2431 300.049 87.2281 300.045 87.2122C300.042 87.1962 300.041 87.1798 300.044 87.1637C300.047 87.1476 300.053 87.1322 300.062 87.1185C300.07 87.1047 300.082 87.0928 300.095 87.0834C300.109 87.074 300.124 87.0674 300.14 87.0638C300.155 87.0603 300.172 87.0599 300.188 87.0627C301.04 87.2116 301.476 86.8457 301.495 86.8299C301.519 86.8081 301.552 86.7972 301.585 86.7994C301.618 86.8015 301.648 86.8167 301.67 86.8415C301.692 86.8663 301.703 86.8986 301.701 86.9315C301.698 86.9644 301.683 86.9951 301.658 87.0168C301.346 87.2487 300.963 87.3652 300.574 87.3465Z" fill="#0C0C0C"/>
<path d="M296.734 80.8367C297.069 80.8367 297.34 80.5652 297.34 80.2303C297.34 79.8954 297.069 79.6239 296.734 79.6239C296.399 79.6239 296.128 79.8954 296.128 80.2303C296.128 80.5652 296.399 80.8367 296.734 80.8367Z" fill="#0C0C0C"/>
<path d="M302.864 80.875C303.199 80.875 303.47 80.6035 303.47 80.2686C303.47 79.9336 303.199 79.6621 302.864 79.6621C302.529 79.6621 302.257 79.9336 302.257 80.2686C302.257 80.6035 302.529 80.875 302.864 80.875Z" fill="#0C0C0C"/>
<path d="M310.693 85.2008C312.184 85.3199 313.521 83.8209 313.64 82.3293C313.759 80.8377 312.615 79.9189 311.124 79.7998L310.276 80.738L309.411 85.0988L310.693 85.2008Z" fill="#E98862"/>
<path d="M285.027 113.103C285.316 116.503 286.724 137.715 287.002 141.903H325.349C325.566 138.126 326.539 121.609 327.36 114.223C328.144 107.175 329.683 103.647 328.555 101.563C326.712 98.1574 321.677 96.1895 318.243 95.7246C316.147 95.441 312.993 95.2375 312.993 95.2375C312.993 95.2375 312.726 100.639 306.359 100.939C297.693 101.347 298.271 95.2375 298.228 95.2375C296.824 95.2375 288.804 96.1262 286.841 97.2894C281.494 100.456 284.412 105.898 285.027 113.103Z" fill="#1CB33D"/>
<path d="M309.369 82.7027C309.369 82.7027 309.359 75.2871 307.151 74.6812C305.681 74.2777 301.924 76.15 298.618 75.2871C297.172 74.9094 295.757 75.1789 295.569 75.8614C295.495 76.1317 294.846 72.133 297.34 69.2985C299.326 67.0419 305.348 66.7706 308.016 67.733C315.401 70.3977 311.41 80.1456 311.41 80.1456L310.904 82.6683L309.369 82.7027Z" fill="#0C0C0C"/>
<g opacity="0.52">
<path opacity="0.52" d="M299.831 84.3664H299.822C299.341 84.3294 298.539 84.2134 298.566 83.8538C298.589 83.556 299.653 80.4024 299.774 80.0439C299.785 80.013 299.807 79.9876 299.836 79.9732C299.865 79.9587 299.899 79.9564 299.93 79.9669C299.961 79.9773 299.986 79.9995 300.001 80.0287C300.015 80.0579 300.017 80.0916 300.007 80.1224C299.535 81.5191 298.827 83.6702 298.811 83.8727C298.852 83.9614 299.343 84.0831 299.84 84.1216C299.872 84.1244 299.901 84.1392 299.922 84.1628C299.942 84.1864 299.953 84.2171 299.952 84.2486C299.951 84.2801 299.938 84.3099 299.915 84.3319C299.893 84.3539 299.863 84.3664 299.831 84.3669V84.3664Z" fill="#0C0C0C"/>
</g>
<path d="M298.438 77.6036C298.05 77.4433 297.627 77.3882 297.211 77.444C296.999 77.4706 296.793 77.5292 296.599 77.6177C296.4 77.7069 296.214 77.8207 296.044 77.9563L296.03 77.9665C295.986 78.0005 295.931 78.016 295.876 78.0096C295.821 78.0033 295.77 77.9756 295.735 77.9325C295.7 77.8894 295.684 77.8344 295.689 77.7792C295.694 77.7239 295.721 77.6729 295.763 77.637C295.951 77.4618 296.161 77.3111 296.387 77.1885C296.617 77.063 296.864 76.9727 297.12 76.9205C297.377 76.8655 297.64 76.8459 297.902 76.8623C298.171 76.8764 298.438 76.929 298.692 77.0184C298.772 77.047 298.836 77.1057 298.872 77.1818C298.908 77.2579 298.913 77.3452 298.885 77.4247C298.857 77.5041 298.799 77.5693 298.723 77.606C298.647 77.6428 298.56 77.648 298.48 77.6207C298.473 77.6179 298.465 77.6151 298.458 77.6118L298.438 77.6036Z" fill="#0C0C0C"/>
<path d="M301.999 77.0691C302.505 76.8951 303.048 76.8613 303.571 76.9715C303.827 77.0237 304.074 77.114 304.304 77.2395C304.53 77.3621 304.74 77.5129 304.928 77.6883C304.97 77.7243 304.996 77.7751 305.001 77.83C305.006 77.8848 304.989 77.9395 304.954 77.9823C304.92 78.0251 304.87 78.0528 304.815 78.0594C304.761 78.0661 304.705 78.0513 304.662 78.018L304.648 78.0073C304.477 77.8716 304.291 77.7578 304.092 77.6687C303.898 77.58 303.692 77.5214 303.48 77.4947C303.064 77.439 302.641 77.494 302.253 77.6544L302.235 77.6623C302.158 77.697 302.07 77.6995 301.99 77.6692C301.911 77.6389 301.847 77.5783 301.812 77.5007C301.777 77.4232 301.775 77.335 301.805 77.2556C301.835 77.1761 301.896 77.112 301.973 77.0773C301.982 77.075 301.99 77.0717 301.999 77.0691Z" fill="#0C0C0C"/>
<path d="M302.516 69.6795C302.965 68.0759 302.446 66.5289 301.356 66.224C300.267 65.9191 299.02 66.9719 298.571 68.5754C298.123 70.179 298.642 71.7261 299.731 72.031C300.821 72.3358 302.068 71.2831 302.516 69.6795Z" fill="#0C0C0C"/>
<path d="M276.609 139.008C275.474 139.007 274.36 138.708 273.377 138.143C272.393 137.577 271.575 136.765 271.002 135.785C270.43 134.805 270.124 133.693 270.114 132.559C270.105 131.424 270.392 130.307 270.948 129.318L286.448 101.748C286.864 101 287.424 100.341 288.096 99.8094C288.768 99.2781 289.538 98.8846 290.362 98.6517C291.186 98.4187 292.048 98.3508 292.898 98.452C293.749 98.5531 294.571 98.8212 295.317 99.241C296.064 99.6607 296.72 100.224 297.249 100.898C297.777 101.572 298.167 102.344 298.396 103.169C298.625 103.994 298.689 104.856 298.584 105.706C298.479 106.556 298.208 107.377 297.785 108.122L282.284 135.692C281.718 136.699 280.894 137.537 279.897 138.12C278.899 138.703 277.764 139.01 276.609 139.008Z" fill="#1CB33D"/>
<path d="M304.923 116.391L300.913 111.697C300.827 111.596 300.721 111.514 300.602 111.455C300.482 111.396 300.353 111.363 300.22 111.356C300.088 111.349 299.955 111.369 299.831 111.415C299.706 111.461 299.592 111.532 299.496 111.624C299.316 111.807 299.213 112.052 299.207 112.309C299.2 112.566 299.292 112.816 299.463 113.008L300.32 114.011L304.608 117.268L304.923 116.391Z" fill="#E98862"/>
<path d="M298.633 117.629L285.969 118.418C285.461 118.45 284.958 118.292 284.56 117.975C284.161 117.658 283.894 117.205 283.81 116.702L280.681 98.0141C280.633 97.7296 280.646 97.4383 280.718 97.1591C280.79 96.8798 280.92 96.6188 281.1 96.393C281.279 96.1671 281.504 95.9815 281.76 95.8481C282.015 95.7147 282.296 95.6364 282.584 95.6185L295.248 94.8294C295.756 94.7978 296.258 94.9557 296.657 95.2725C297.056 95.5894 297.323 96.0428 297.407 96.5452L300.535 115.233C300.583 115.518 300.57 115.809 300.498 116.088C300.426 116.367 300.296 116.628 300.117 116.854C299.937 117.08 299.713 117.266 299.457 117.399C299.201 117.533 298.921 117.611 298.633 117.629Z" fill="#292A2E"/>
<path d="M300.32 114.011L296.163 112.087C295.704 111.865 295 111.886 294.785 112.417C294.689 112.615 294.663 112.841 294.712 113.056C294.76 113.271 294.88 113.464 295.053 113.602C295.049 113.606 295.046 113.61 295.044 113.615C295.042 113.619 295.042 113.622 295.041 113.626L294.334 113.284C294.204 113.221 294.061 113.187 293.916 113.186C293.772 113.185 293.628 113.216 293.497 113.277C293.366 113.338 293.25 113.427 293.157 113.538C293.064 113.649 292.998 113.78 292.961 113.92C292.908 114.144 292.934 114.38 293.035 114.588C293.136 114.795 293.306 114.961 293.515 115.058L293.816 115.204C293.816 115.215 293.818 115.226 293.821 115.236C293.597 115.185 293.363 115.215 293.159 115.32C292.954 115.424 292.794 115.598 292.705 115.81C292.613 116.05 292.617 116.316 292.714 116.554C292.812 116.792 292.996 116.984 293.23 117.091L293.969 117.448C293.955 117.45 293.942 117.456 293.93 117.464C293.919 117.473 293.909 117.484 293.903 117.497C293.896 117.514 293.894 117.532 293.897 117.55C293.689 117.559 293.49 117.635 293.328 117.766C293.166 117.897 293.05 118.076 292.998 118.278C292.945 118.502 292.971 118.738 293.072 118.946C293.173 119.153 293.342 119.32 293.552 119.417L299.857 122.47C300.739 122.897 301.728 123.051 302.699 122.912C303.669 122.773 304.575 122.348 305.302 121.69L307.642 119.573L300.32 114.011Z" fill="#E98862"/>
<g opacity="0.2">
<path opacity="0.2" d="M299.157 115.528C299.147 115.549 299.128 115.565 299.106 115.573C299.084 115.581 299.06 115.58 299.038 115.57L295.086 113.734C295.075 113.728 295.065 113.721 295.057 113.713C295.049 113.704 295.043 113.694 295.039 113.683C295.035 113.671 295.033 113.66 295.034 113.648C295.034 113.636 295.037 113.624 295.042 113.614C295.047 113.603 295.054 113.593 295.063 113.585C295.072 113.577 295.082 113.571 295.093 113.567C295.104 113.563 295.116 113.561 295.128 113.562C295.14 113.562 295.151 113.565 295.162 113.57L299.115 115.405C299.137 115.415 299.153 115.433 299.162 115.456C299.17 115.478 299.169 115.503 299.159 115.525L299.157 115.528Z" fill="#0C0C0C"/>
</g>
<g opacity="0.2">
<path opacity="0.2" d="M298.396 117.293C298.386 117.314 298.367 117.331 298.345 117.338C298.323 117.346 298.299 117.345 298.277 117.335L293.867 115.288C293.846 115.277 293.829 115.259 293.821 115.237C293.813 115.214 293.814 115.189 293.824 115.168C293.834 115.147 293.853 115.13 293.875 115.122C293.897 115.114 293.922 115.115 293.943 115.124L298.353 117.172C298.375 117.182 298.392 117.2 298.4 117.223C298.408 117.245 298.407 117.27 298.397 117.291L298.396 117.293Z" fill="#0C0C0C"/>
</g>
<g opacity="0.2">
<path opacity="0.2" d="M297.583 119.209C297.572 119.23 297.554 119.247 297.532 119.254C297.51 119.262 297.485 119.261 297.464 119.251L293.946 117.618C293.935 117.613 293.926 117.606 293.918 117.597C293.91 117.588 293.904 117.578 293.9 117.567C293.896 117.556 293.894 117.544 293.894 117.532C293.895 117.52 293.898 117.508 293.903 117.498C293.908 117.487 293.915 117.477 293.924 117.469C293.932 117.461 293.943 117.455 293.954 117.451C293.965 117.447 293.977 117.445 293.989 117.446C294 117.446 294.012 117.449 294.023 117.454L297.54 119.088C297.562 119.098 297.579 119.116 297.587 119.139C297.595 119.161 297.594 119.186 297.584 119.207L297.583 119.209Z" fill="#0C0C0C"/>
</g>
<path d="M300.065 124.281L327.417 137.698C328.575 138.231 329.86 138.426 331.124 138.26C332.388 138.094 333.58 137.574 334.561 136.76C335.542 135.946 336.273 134.871 336.67 133.659C337.066 132.447 337.112 131.148 336.801 129.912L329.498 103.653C329.062 101.914 327.952 100.419 326.414 99.4981C324.876 98.5769 323.035 98.3044 321.296 98.7406C317.675 99.6493 315.73 103.321 316.639 106.943L322.369 121.141L304.842 113.792L300.065 124.281Z" fill="#1CB33D"/>
<path d="M325.617 136.961C325.609 136.96 325.601 136.957 325.593 136.953L300.025 124.362C300.004 124.352 299.988 124.333 299.98 124.311C299.972 124.289 299.973 124.265 299.983 124.243L304.759 113.755C304.769 113.733 304.787 113.717 304.809 113.708C304.831 113.699 304.855 113.7 304.877 113.709L321.975 120.73L318.591 110.537C318.588 110.526 318.587 110.514 318.589 110.502C318.59 110.491 318.594 110.479 318.599 110.469C318.605 110.459 318.613 110.449 318.622 110.442C318.631 110.435 318.642 110.429 318.653 110.426C318.665 110.423 318.677 110.422 318.688 110.423C318.7 110.425 318.712 110.428 318.722 110.434C318.732 110.44 318.741 110.448 318.749 110.457C318.756 110.466 318.761 110.477 318.765 110.488L322.2 120.861C322.204 120.877 322.204 120.895 322.2 120.911C322.195 120.927 322.186 120.942 322.173 120.953C322.16 120.965 322.144 120.972 322.128 120.975C322.111 120.977 322.094 120.975 322.078 120.969L304.887 113.909L300.183 124.237L325.672 136.79C325.691 136.8 325.707 136.816 325.715 136.836C325.724 136.856 325.725 136.878 325.718 136.899C325.711 136.92 325.698 136.937 325.679 136.948C325.661 136.96 325.639 136.964 325.617 136.96V136.961Z" fill="#0C0C0C"/>
<path d="M325.18 122.352C325.173 122.35 325.165 122.348 325.159 122.345L322.077 120.968C322.066 120.964 322.056 120.957 322.048 120.948C322.04 120.939 322.034 120.929 322.03 120.918C322.025 120.907 322.023 120.895 322.024 120.884C322.024 120.872 322.027 120.86 322.031 120.849C322.036 120.839 322.043 120.829 322.052 120.821C322.06 120.813 322.07 120.806 322.081 120.802C322.092 120.798 322.104 120.796 322.116 120.796C322.128 120.796 322.14 120.799 322.15 120.804L325.232 122.181C325.252 122.19 325.268 122.206 325.277 122.226C325.286 122.245 325.287 122.268 325.281 122.289C325.275 122.309 325.261 122.327 325.243 122.339C325.225 122.35 325.203 122.355 325.181 122.352H325.18Z" fill="#0C0C0C"/>
</svg>
