<svg width="341" height="263" viewBox="0 0 341 263" fill="none" xmlns="http://www.w3.org/2000/svg">
<path fill-rule="evenodd" clip-rule="evenodd" d="M168.347 7.02047C213.926 -1.11166 261 -9.5 299.316 32.34C337.633 74.1801 332.5 97.5 340.022 134.818C347.544 172.136 310.1 197.892 276.434 219.391C246.17 238.716 222 289 168.347 244.444C114.695 199.888 107.656 221.288 79.2196 204.556C42.7 183.068 -0.809774 170.543 1 134.818C2.82025 98.8859 51.4574 94.1023 86.0159 70.3971C116.11 49.754 129.327 13.9824 168.347 7.02047Z" fill="#D4F0CF"/>
<path d="M178.321 151.866H180.388C180.552 151.866 180.712 151.815 180.847 151.721C180.981 151.626 181.082 151.491 181.136 151.336C181.295 150.882 181.482 150.438 181.697 150.008C181.771 149.859 181.796 149.69 181.769 149.526C181.742 149.362 181.664 149.211 181.546 149.093L180.077 147.624C179.928 147.475 179.844 147.272 179.844 147.061C179.844 146.85 179.928 146.647 180.077 146.498L183.251 143.326C183.4 143.177 183.603 143.093 183.814 143.093C184.025 143.093 184.228 143.177 184.377 143.326L185.873 144.822C185.989 144.939 186.139 145.016 186.302 145.044C186.465 145.071 186.632 145.047 186.78 144.975C187.202 144.769 187.637 144.59 188.082 144.438C188.239 144.385 188.375 144.284 188.471 144.149C188.567 144.014 188.619 143.853 188.619 143.687V141.568C188.619 141.464 188.639 141.36 188.679 141.264C188.719 141.167 188.778 141.079 188.852 141.005C188.926 140.931 189.013 140.873 189.11 140.833C189.207 140.793 189.31 140.772 189.415 140.772H193.902C194.006 140.772 194.11 140.793 194.207 140.833C194.303 140.873 194.391 140.931 194.465 141.005C194.539 141.079 194.597 141.167 194.637 141.264C194.677 141.36 194.698 141.464 194.698 141.568V143.687C194.698 143.853 194.749 144.014 194.845 144.149C194.942 144.284 195.078 144.385 195.234 144.438C195.679 144.59 196.114 144.769 196.536 144.975C196.685 145.047 196.852 145.071 197.014 145.044C197.177 145.016 197.327 144.939 197.444 144.822L198.939 143.326C199.089 143.177 199.291 143.093 199.502 143.093C199.714 143.093 199.916 143.177 200.066 143.326L203.239 146.499C203.389 146.648 203.473 146.85 203.473 147.062C203.473 147.273 203.389 147.475 203.239 147.625L201.77 149.094C201.652 149.211 201.574 149.363 201.547 149.527C201.52 149.691 201.546 149.86 201.62 150.008C201.835 150.439 202.022 150.882 202.179 151.337C202.234 151.492 202.335 151.626 202.469 151.721C202.604 151.816 202.764 151.867 202.929 151.867H204.996C205.101 151.867 205.204 151.887 205.301 151.927C205.397 151.967 205.485 152.026 205.559 152.1C205.633 152.174 205.691 152.261 205.731 152.358C205.771 152.455 205.792 152.558 205.792 152.663V157.151C205.792 157.255 205.771 157.359 205.731 157.456C205.691 157.552 205.633 157.64 205.559 157.714C205.485 157.788 205.397 157.846 205.301 157.886C205.204 157.926 205.101 157.947 204.996 157.947H202.983C202.815 157.947 202.652 157.999 202.516 158.098C202.381 158.196 202.279 158.334 202.227 158.493C202.072 158.96 201.886 159.416 201.671 159.858C201.598 160.007 201.573 160.175 201.6 160.338C201.627 160.502 201.705 160.653 201.822 160.771L203.239 162.189C203.313 162.262 203.372 162.35 203.412 162.447C203.452 162.543 203.472 162.647 203.472 162.751C203.472 162.855 203.452 162.959 203.412 163.055C203.372 163.152 203.313 163.24 203.239 163.313L200.065 166.487C199.916 166.637 199.713 166.721 199.502 166.721C199.291 166.721 199.088 166.637 198.939 166.487L197.549 165.098C197.431 164.98 197.278 164.902 197.113 164.875C196.948 164.849 196.779 164.875 196.629 164.95C196.18 165.175 195.715 165.368 195.239 165.53C195.082 165.583 194.944 165.685 194.847 165.82C194.75 165.955 194.698 166.117 194.697 166.284V168.244C194.697 168.348 194.677 168.452 194.637 168.549C194.597 168.645 194.538 168.733 194.465 168.807C194.391 168.881 194.303 168.94 194.206 168.98C194.11 169.02 194.006 169.041 193.901 169.041H189.415C189.31 169.041 189.206 169.02 189.11 168.98C189.013 168.94 188.925 168.881 188.851 168.807C188.777 168.733 188.719 168.645 188.679 168.549C188.639 168.452 188.619 168.348 188.619 168.244V166.284C188.618 166.117 188.566 165.955 188.469 165.82C188.371 165.685 188.234 165.583 188.077 165.53C187.601 165.368 187.136 165.175 186.687 164.95C186.537 164.875 186.368 164.849 186.203 164.875C186.038 164.902 185.885 164.98 185.767 165.098L184.377 166.487C184.228 166.637 184.025 166.721 183.814 166.721C183.603 166.721 183.4 166.637 183.251 166.487L180.077 163.313C180.003 163.24 179.944 163.152 179.904 163.055C179.864 162.959 179.844 162.855 179.844 162.751C179.844 162.647 179.864 162.543 179.904 162.447C179.944 162.35 180.003 162.262 180.077 162.189L181.494 160.771C181.611 160.653 181.689 160.502 181.716 160.338C181.743 160.175 181.718 160.007 181.645 159.858C181.43 159.416 181.244 158.96 181.089 158.493C181.036 158.334 180.935 158.196 180.8 158.098C180.664 157.999 180.501 157.947 180.333 157.947H178.321C178.216 157.947 178.112 157.926 178.016 157.886C177.919 157.846 177.832 157.788 177.758 157.714C177.684 157.64 177.625 157.552 177.585 157.456C177.545 157.359 177.525 157.255 177.525 157.151V152.663C177.524 152.558 177.545 152.454 177.585 152.358C177.625 152.261 177.684 152.173 177.758 152.099C177.831 152.025 177.919 151.967 178.016 151.927C178.113 151.887 178.216 151.866 178.321 151.866ZM191.658 161.539C192.97 161.539 194.252 161.15 195.343 160.421C196.433 159.692 197.284 158.657 197.786 157.445C198.288 156.233 198.419 154.899 198.163 153.612C197.907 152.326 197.275 151.144 196.348 150.216C195.42 149.289 194.238 148.657 192.952 148.401C191.665 148.145 190.331 148.276 189.119 148.778C187.907 149.28 186.872 150.131 186.143 151.221C185.414 152.312 185.025 153.594 185.025 154.906C185.025 156.665 185.724 158.352 186.968 159.596C188.211 160.84 189.899 161.539 191.658 161.539Z" fill="#F4F4F4"/>
<path d="M204.138 125.128H206.952C207.176 125.128 207.394 125.059 207.577 124.93C207.76 124.801 207.897 124.618 207.972 124.407C208.187 123.788 208.442 123.184 208.734 122.598C208.836 122.396 208.87 122.166 208.833 121.943C208.797 121.719 208.69 121.513 208.53 121.353L206.529 119.353C206.326 119.15 206.212 118.874 206.212 118.587C206.212 118.299 206.326 118.023 206.529 117.82L210.851 113.501C211.054 113.297 211.33 113.183 211.617 113.183C211.905 113.183 212.181 113.297 212.384 113.501L214.42 115.537C214.579 115.696 214.783 115.802 215.004 115.839C215.226 115.876 215.454 115.844 215.656 115.745C216.23 115.465 216.822 115.221 217.428 115.015C217.641 114.942 217.827 114.804 217.958 114.621C218.089 114.438 218.159 114.218 218.158 113.992V111.108C218.158 110.965 218.186 110.824 218.241 110.693C218.295 110.561 218.375 110.442 218.476 110.341C218.576 110.241 218.696 110.161 218.827 110.106C218.959 110.052 219.1 110.024 219.242 110.024H225.351C225.493 110.024 225.634 110.052 225.765 110.106C225.897 110.161 226.016 110.241 226.117 110.341C226.218 110.442 226.297 110.561 226.352 110.693C226.406 110.824 226.434 110.965 226.434 111.108V113.992C226.434 114.218 226.504 114.438 226.635 114.621C226.766 114.804 226.952 114.942 227.165 115.015C227.771 115.221 228.363 115.465 228.937 115.745C229.14 115.844 229.367 115.877 229.589 115.839C229.81 115.802 230.015 115.696 230.173 115.537L232.209 113.501C232.413 113.297 232.689 113.183 232.976 113.183C233.264 113.183 233.539 113.297 233.743 113.501L238.064 117.82C238.267 118.023 238.381 118.299 238.381 118.587C238.381 118.874 238.267 119.15 238.064 119.353L236.064 121.353C235.903 121.513 235.797 121.719 235.76 121.943C235.723 122.166 235.758 122.396 235.859 122.598C236.151 123.184 236.406 123.788 236.62 124.407C236.694 124.618 236.833 124.801 237.015 124.93C237.198 125.059 237.417 125.128 237.641 125.128H240.455C240.597 125.128 240.738 125.156 240.869 125.21C241.001 125.265 241.12 125.345 241.221 125.445C241.322 125.546 241.402 125.665 241.456 125.797C241.51 125.928 241.538 126.069 241.538 126.211V132.322C241.538 132.464 241.51 132.605 241.456 132.737C241.402 132.868 241.322 132.988 241.221 133.088C241.121 133.189 241.001 133.269 240.87 133.323C240.738 133.378 240.597 133.406 240.455 133.406H237.715C237.487 133.406 237.265 133.477 237.08 133.611C236.895 133.745 236.758 133.933 236.686 134.15C236.475 134.785 236.222 135.406 235.929 136.008C235.83 136.21 235.796 136.439 235.833 136.662C235.87 136.885 235.975 137.09 236.134 137.25L238.064 139.18C238.165 139.281 238.245 139.4 238.299 139.532C238.354 139.663 238.382 139.804 238.382 139.947C238.382 140.089 238.354 140.23 238.299 140.361C238.245 140.493 238.165 140.612 238.064 140.713L233.743 145.034C233.54 145.237 233.264 145.351 232.976 145.351C232.689 145.351 232.413 145.237 232.21 145.034L230.318 143.142C230.156 142.981 229.949 142.875 229.724 142.839C229.499 142.802 229.269 142.838 229.065 142.94C228.453 143.246 227.821 143.509 227.173 143.729C226.958 143.802 226.772 143.94 226.639 144.124C226.507 144.308 226.435 144.529 226.435 144.756V147.424C226.435 147.567 226.407 147.708 226.353 147.839C226.299 147.971 226.219 148.091 226.118 148.192C226.018 148.292 225.898 148.372 225.766 148.427C225.635 148.482 225.494 148.51 225.351 148.51H219.243C219.1 148.51 218.959 148.482 218.828 148.427C218.696 148.372 218.577 148.292 218.476 148.192C218.375 148.091 218.295 147.971 218.241 147.839C218.187 147.708 218.159 147.567 218.159 147.424V144.756C218.159 144.529 218.087 144.308 217.955 144.124C217.823 143.94 217.636 143.802 217.421 143.729C216.773 143.509 216.141 143.246 215.529 142.94C215.325 142.838 215.095 142.802 214.87 142.839C214.645 142.875 214.438 142.981 214.276 143.142L212.385 145.034C212.181 145.237 211.905 145.351 211.618 145.351C211.33 145.351 211.055 145.237 210.851 145.034L206.53 140.713C206.429 140.612 206.349 140.493 206.295 140.361C206.24 140.23 206.212 140.089 206.212 139.947C206.212 139.804 206.24 139.663 206.295 139.532C206.349 139.4 206.429 139.281 206.53 139.18L208.46 137.25C208.619 137.09 208.724 136.885 208.761 136.662C208.798 136.439 208.764 136.21 208.665 136.008C208.372 135.406 208.119 134.785 207.908 134.15C207.837 133.933 207.699 133.745 207.514 133.611C207.33 133.477 207.107 133.406 206.88 133.406H204.139C203.997 133.406 203.856 133.378 203.725 133.323C203.593 133.269 203.474 133.189 203.373 133.088C203.272 132.988 203.192 132.868 203.138 132.737C203.084 132.605 203.056 132.464 203.056 132.322V126.211C203.056 126.069 203.084 125.928 203.138 125.797C203.192 125.666 203.272 125.546 203.373 125.445C203.473 125.345 203.592 125.265 203.724 125.211C203.855 125.156 203.996 125.128 204.138 125.128ZM222.296 138.296C224.082 138.296 225.828 137.767 227.313 136.774C228.799 135.782 229.956 134.372 230.639 132.722C231.323 131.072 231.502 129.256 231.153 127.504C230.805 125.753 229.945 124.143 228.682 122.881C227.419 121.618 225.81 120.758 224.058 120.409C222.307 120.061 220.491 120.24 218.841 120.923C217.191 121.607 215.78 122.764 214.788 124.249C213.796 125.734 213.266 127.48 213.266 129.266C213.266 131.661 214.218 133.958 215.911 135.651C217.605 137.345 219.902 138.296 222.296 138.296Z" fill="#F4F4F4"/>
<path d="M145.816 193.984L145.468 194.022L149.766 233.298L150.114 233.259L145.816 193.984Z" fill="#292A2E"/>
<path d="M156.948 211.13L154.833 232.048L155.182 232.083L157.296 211.166L156.948 211.13Z" fill="#292A2E"/>
<path d="M160.584 229.519H144.895V234.611H160.584V229.519Z" fill="#292A2E"/>
<path opacity="0.2" d="M160.584 229.519H144.895V234.611H160.584V229.519Z" fill="white"/>
<path d="M170.042 220.144C173.014 216.194 171.597 210.113 166.877 206.562C162.158 203.011 155.922 203.334 152.95 207.284C149.978 211.234 151.395 217.315 156.115 220.867C160.834 224.418 167.07 224.094 170.042 220.144Z" fill="#6CA558"/>
<path opacity="0.2" d="M170.042 220.144C173.014 216.194 171.597 210.113 166.877 206.562C162.158 203.011 155.922 203.334 152.95 207.284C149.978 211.234 151.395 217.315 156.115 220.867C160.834 224.418 167.07 224.094 170.042 220.144Z" fill="white"/>
<path opacity="0.5" d="M170.041 220.145C169.841 220.411 169.624 220.664 169.389 220.9C166.118 222.99 161.289 222.661 157.458 219.778C152.738 216.228 151.322 210.147 154.294 206.197C154.494 205.931 154.711 205.679 154.944 205.442C158.218 203.35 163.045 203.681 166.878 206.562C171.597 210.114 173.013 216.195 170.041 220.145Z" fill="white"/>
<path d="M148.146 205.158C152.822 201.549 154.093 195.359 150.985 191.333C147.877 187.306 141.567 186.968 136.891 190.577C132.216 194.186 130.945 200.376 134.053 204.402C137.161 208.429 143.471 208.767 148.146 205.158Z" fill="#6CA558"/>
<path opacity="0.2" d="M146.665 204.122C143.044 206.919 138.443 207.345 135.107 205.525C134.721 205.185 134.368 204.808 134.054 204.401C130.945 200.376 132.216 194.186 136.891 190.577C140.512 187.782 145.114 187.354 148.448 189.173C148.835 189.513 149.188 189.89 149.503 190.298C152.611 194.323 151.341 200.514 146.665 204.122Z" fill="white"/>
<path d="M93.9922 117.516H146.609C147.86 117.516 148.875 118.531 148.875 119.783V145.891C148.875 147.143 147.86 148.158 146.609 148.158H93.9922C92.7404 148.158 91.7256 147.143 91.7256 145.891V119.783C91.7256 118.531 92.7404 117.516 93.9922 117.516Z" fill="#F4F4F4"/>
<path d="M114.081 134.916H117.729C117.951 134.916 118.131 135.096 118.131 135.318V143.403C118.131 143.625 117.951 143.805 117.729 143.805H114.081C113.859 143.805 113.679 143.625 113.679 143.403V135.318C113.679 135.096 113.859 134.916 114.081 134.916Z" fill="white"/>
<path d="M105.291 126.43H108.938C109.16 126.43 109.34 126.61 109.34 126.832V143.403C109.34 143.625 109.16 143.805 108.938 143.805H105.291C105.068 143.805 104.888 143.625 104.888 143.403V126.832C104.888 126.61 105.068 126.43 105.291 126.43Z" fill="white"/>
<path d="M96.4998 132.923H100.147C100.37 132.923 100.55 133.103 100.55 133.325V143.403C100.55 143.625 100.37 143.805 100.147 143.805H96.4998C96.2777 143.805 96.0976 143.625 96.0976 143.403V133.325C96.0976 133.103 96.2777 132.923 96.4998 132.923Z" fill="white"/>
<path d="M140.453 134.916H144.101C144.323 134.916 144.503 135.096 144.503 135.318V143.403C144.503 143.625 144.323 143.805 144.101 143.805H140.453C140.231 143.805 140.051 143.625 140.051 143.403V135.318C140.051 135.096 140.231 134.916 140.453 134.916Z" fill="white"/>
<path d="M131.663 126.43H135.31C135.532 126.43 135.713 126.61 135.713 126.832V143.403C135.713 143.625 135.532 143.805 135.31 143.805H131.663C131.441 143.805 131.26 143.625 131.26 143.403V126.832C131.26 126.61 131.441 126.43 131.663 126.43Z" fill="white"/>
<path d="M122.872 132.923H126.52C126.742 132.923 126.922 133.103 126.922 133.325V143.403C126.922 143.625 126.742 143.805 126.52 143.805H122.872C122.65 143.805 122.47 143.625 122.47 143.403V133.325C122.47 133.103 122.65 132.923 122.872 132.923Z" fill="white"/>
<path d="M192.895 37.9571H239.68C241.047 37.9571 242.154 39.0648 242.154 40.4314V63.2202C242.154 64.5867 241.047 65.6945 239.68 65.6945H192.895C191.529 65.6945 190.421 64.5867 190.421 63.2202V40.4314C190.421 39.0648 191.529 37.9571 192.895 37.9571Z" fill="#F4F4F4"/>
<path d="M210.658 53.7072H213.96C214.161 53.7072 214.324 53.8701 214.324 54.0711V61.3903C214.324 61.5913 214.161 61.7542 213.96 61.7542H210.658C210.457 61.7542 210.294 61.5913 210.294 61.3903V54.0711C210.294 53.8701 210.457 53.7072 210.658 53.7072Z" fill="white"/>
<path d="M202.7 46.0257H206.002C206.203 46.0257 206.366 46.1887 206.366 46.3896V61.3902C206.366 61.5912 206.203 61.7541 206.002 61.7541H202.7C202.499 61.7541 202.336 61.5912 202.336 61.3902V46.3896C202.336 46.1887 202.499 46.0257 202.7 46.0257Z" fill="white"/>
<path d="M194.743 51.9034H198.045C198.246 51.9034 198.409 52.0663 198.409 52.2673V61.3903C198.409 61.5913 198.246 61.7542 198.045 61.7542H194.743C194.542 61.7542 194.379 61.5913 194.379 61.3903V52.2673C194.379 52.0663 194.542 51.9034 194.743 51.9034Z" fill="white"/>
<path d="M234.531 53.7072H237.833C238.034 53.7072 238.197 53.8701 238.197 54.0711V61.3903C238.197 61.5913 238.034 61.7542 237.833 61.7542H234.531C234.33 61.7542 234.167 61.5913 234.167 61.3903V54.0711C234.167 53.8701 234.33 53.7072 234.531 53.7072Z" fill="white"/>
<path d="M226.573 46.0257H229.875C230.076 46.0257 230.239 46.1887 230.239 46.3896V61.3902C230.239 61.5912 230.076 61.7541 229.875 61.7541H226.573C226.372 61.7541 226.209 61.5912 226.209 61.3902V46.3896C226.209 46.1887 226.372 46.0257 226.573 46.0257Z" fill="white"/>
<path d="M218.616 51.9034H221.918C222.119 51.9034 222.282 52.0663 222.282 52.2673V61.3903C222.282 61.5913 222.119 61.7542 221.918 61.7542H218.616C218.415 61.7542 218.252 61.5913 218.252 61.3903V52.2673C218.252 52.0663 218.415 51.9034 218.616 51.9034Z" fill="white"/>
<path d="M130.857 28.2016H215.662C217.473 28.2016 218.94 29.6692 218.94 31.4797V131.329C218.94 133.139 217.473 134.607 215.662 134.607H130.857C129.047 134.607 127.579 133.139 127.579 131.329V31.4797C127.579 29.6692 129.047 28.2016 130.857 28.2016Z" fill="white"/>
<path d="M130.857 134.808H215.662C216.585 134.807 217.469 134.44 218.122 133.788C218.774 133.136 219.141 132.251 219.142 131.329V31.4797C219.141 30.5572 218.774 29.6727 218.122 29.0204C217.469 28.368 216.585 28.0011 215.662 28H130.857C129.935 28.0011 129.05 28.368 128.398 29.0204C127.746 29.6727 127.379 30.5572 127.378 31.4797V131.329C127.379 132.251 127.746 133.136 128.398 133.788C129.05 134.44 129.935 134.807 130.857 134.808ZM215.662 28.4032C216.478 28.4042 217.26 28.7286 217.837 29.3054C218.413 29.8821 218.738 30.6641 218.739 31.4797V131.329C218.738 132.144 218.413 132.926 217.837 133.503C217.26 134.08 216.478 134.404 215.662 134.405H130.857C130.042 134.404 129.26 134.08 128.683 133.503C128.106 132.926 127.782 132.144 127.781 131.329V31.4797C127.782 30.6641 128.106 29.8821 128.683 29.3054C129.26 28.7286 130.042 28.4042 130.857 28.4032H215.662Z" fill="#292A2E"/>
<path d="M163.658 44.3002C162.573 44.3002 161.693 43.4204 161.693 42.3351C161.693 41.2499 162.573 40.3701 163.658 40.3701C164.743 40.3701 165.623 41.2499 165.623 42.3351C165.623 43.4204 164.743 44.3002 163.658 44.3002Z" fill="#1CB23D"/>
<path d="M163.658 44.3002C162.573 44.3002 161.693 43.4204 161.693 42.3351C161.693 41.2499 162.573 40.3701 163.658 40.3701C164.743 40.3701 165.623 41.2499 165.623 42.3351C165.623 43.4204 164.743 44.3002 163.658 44.3002Z" fill="#1CB23D"/>
<path d="M163.658 54.3167C162.573 54.3167 161.693 53.4369 161.693 52.3517C161.693 51.2664 162.573 50.3866 163.658 50.3866C164.743 50.3866 165.623 51.2664 165.623 52.3517C165.623 53.4369 164.743 54.3167 163.658 54.3167Z" fill="#292A2E"/>
<path opacity="0.5" d="M163.658 64.3332C162.573 64.3332 161.693 63.4534 161.693 62.3682C161.693 61.2829 162.573 60.4031 163.658 60.4031C164.743 60.4031 165.623 61.2829 165.623 62.3682C165.623 63.4534 164.743 64.3332 163.658 64.3332Z" fill="#1CB23D"/>
<path opacity="0.2" d="M163.658 74.3497C162.573 74.3497 161.693 73.4699 161.693 72.3847C161.693 71.2994 162.573 70.4196 163.658 70.4196C164.743 70.4196 165.623 71.2994 165.623 72.3847C165.623 73.4699 164.743 74.3497 163.658 74.3497Z" fill="#1CB23D"/>
<path d="M202.663 57.3599C202.663 59.7551 201.92 62.0911 200.536 64.0464C199.153 66.0016 197.197 67.4798 194.939 68.2774L198.115 76.0223C202.484 74.3759 206.136 71.249 208.436 67.1864C210.736 63.1238 211.538 58.3831 210.701 53.7901C209.865 49.1972 207.444 45.0432 203.86 42.052C200.276 39.0607 195.755 37.4218 191.087 37.4208V45.7836C194.157 45.7836 197.102 47.0032 199.273 49.1742C201.444 51.3452 202.663 54.2896 202.663 57.3599Z" fill="#292A2E"/>
<path d="M171.148 57.3598H179.51C179.51 54.2896 180.73 51.3451 182.901 49.1741C185.072 47.0031 188.017 45.7835 191.087 45.7835V37.4207C185.799 37.4211 180.727 39.5219 176.988 43.2611C173.249 47.0003 171.148 52.0717 171.148 57.3598Z" fill="#1CB23D"/>
<path opacity="0.5" d="M171.148 57.3599C171.148 61.8778 172.682 66.2617 175.499 69.7941C178.316 73.3265 182.248 75.798 186.653 76.8042L188.07 68.5384C185.613 67.8746 183.443 66.4201 181.896 64.3996C180.349 62.3792 179.51 59.9055 179.51 57.3607L171.148 57.3599Z" fill="#1CB23D"/>
<path opacity="0.2" d="M186.653 76.8043C190.468 77.6684 194.452 77.3968 198.114 76.0231L194.938 68.2774C192.727 69.0533 190.333 69.144 188.07 68.5377L186.653 76.8043Z" fill="#1CB23D"/>
<path d="M136.322 42.4777H159.084C159.121 42.4777 159.158 42.4627 159.184 42.4359C159.211 42.4092 159.226 42.3729 159.226 42.3351C159.226 42.2973 159.211 42.2611 159.184 42.2343C159.158 42.2076 159.121 42.1926 159.084 42.1926H136.322C136.285 42.1926 136.248 42.2076 136.222 42.2343C136.195 42.2611 136.18 42.2973 136.18 42.3351C136.18 42.3729 136.195 42.4092 136.222 42.4359C136.248 42.4627 136.285 42.4777 136.322 42.4777Z" fill="#1CB23D"/>
<path d="M136.322 52.495H159.084C159.121 52.495 159.158 52.48 159.184 52.4532C159.211 52.4265 159.226 52.3902 159.226 52.3524C159.226 52.3146 159.211 52.2784 159.184 52.2517C159.158 52.2249 159.121 52.2099 159.084 52.2099H136.322C136.285 52.2099 136.248 52.2249 136.222 52.2517C136.195 52.2784 136.18 52.3146 136.18 52.3524C136.18 52.3902 136.195 52.4265 136.222 52.4532C136.248 52.48 136.285 52.495 136.322 52.495Z" fill="#292A2E"/>
<g opacity="0.5">
<path opacity="0.5" d="M136.322 62.5108H159.084C159.12 62.5094 159.155 62.4938 159.181 62.4672C159.206 62.4407 159.221 62.4052 159.221 62.3684C159.221 62.3315 159.206 62.2961 159.181 62.2695C159.155 62.2429 159.12 62.2273 159.084 62.2259H136.322C136.303 62.2252 136.284 62.2284 136.266 62.2352C136.248 62.242 136.232 62.2524 136.218 62.2657C136.204 62.279 136.193 62.295 136.186 62.3126C136.178 62.3302 136.175 62.3492 136.175 62.3684C136.175 62.3875 136.178 62.4065 136.186 62.4242C136.193 62.4418 136.204 62.4577 136.218 62.471C136.232 62.4843 136.248 62.4947 136.266 62.5015C136.284 62.5084 136.303 62.5115 136.322 62.5108Z" fill="#1CB23D"/>
</g>
<g opacity="0.2">
<path opacity="0.2" d="M136.322 72.5273H159.084C159.12 72.5259 159.155 72.5103 159.181 72.4837C159.206 72.4572 159.221 72.4217 159.221 72.3849C159.221 72.348 159.206 72.3126 159.181 72.286C159.155 72.2594 159.12 72.2438 159.084 72.2424H136.322C136.303 72.2417 136.284 72.2449 136.266 72.2517C136.248 72.2585 136.232 72.2689 136.218 72.2822C136.204 72.2955 136.193 72.3115 136.186 72.3291C136.178 72.3467 136.175 72.3657 136.175 72.3849C136.175 72.404 136.178 72.423 136.186 72.4407C136.193 72.4583 136.204 72.4742 136.218 72.4875C136.232 72.5008 136.248 72.5112 136.266 72.518C136.284 72.5249 136.303 72.528 136.322 72.5273Z" fill="#1CB23D"/>
</g>
<g opacity="0.1">
<path opacity="0.1" d="M136.224 126.966H210.295C210.939 126.965 211.557 126.709 212.012 126.254C212.467 125.798 212.724 125.181 212.724 124.537V87.0097C212.723 86.3658 212.467 85.7484 212.012 85.293C211.557 84.8377 210.939 84.5815 210.295 84.5808H136.224C135.58 84.5815 134.963 84.8376 134.508 85.293C134.052 85.7483 133.796 86.3658 133.796 87.0097V124.537C133.796 125.181 134.052 125.798 134.508 126.254C134.963 126.709 135.58 126.965 136.224 126.966Z" fill="#1CB23D"/>
</g>
<path opacity="0.5" d="M202.627 93.0936H204.069C204.286 93.0936 204.462 93.2695 204.462 93.4865V121.034C204.462 121.251 204.286 121.427 204.069 121.427H202.627C202.41 121.427 202.234 121.251 202.234 121.034V93.4865C202.234 93.2695 202.41 93.0936 202.627 93.0936Z" fill="#1CB23D"/>
<path d="M204.855 101.993H206.297C206.514 101.993 206.69 102.169 206.69 102.386V121.034C206.69 121.251 206.514 121.427 206.297 121.427H204.855C204.638 121.427 204.462 121.251 204.462 121.034V102.386C204.462 102.169 204.638 101.993 204.855 101.993Z" fill="#1CB23D"/>
<path opacity="0.5" d="M184.797 117.842H186.239C186.456 117.842 186.632 118.018 186.632 118.235V121.034C186.632 121.251 186.456 121.427 186.239 121.427H184.797C184.58 121.427 184.404 121.251 184.404 121.034V118.235C184.404 118.018 184.58 117.842 184.797 117.842Z" fill="#1CB23D"/>
<path d="M187.025 100.393H188.467C188.684 100.393 188.86 100.568 188.86 100.785V121.034C188.86 121.251 188.684 121.427 188.467 121.427H187.025C186.808 121.427 186.632 121.251 186.632 121.034V100.785C186.632 100.568 186.808 100.393 187.025 100.393Z" fill="#1CB23D"/>
<path opacity="0.5" d="M193.712 104.467H195.154C195.371 104.467 195.547 104.643 195.547 104.86V121.034C195.547 121.251 195.371 121.427 195.154 121.427H193.712C193.495 121.427 193.319 121.251 193.319 121.034V104.86C193.319 104.643 193.495 104.467 193.712 104.467Z" fill="#1CB23D"/>
<path d="M195.94 110.327H197.382C197.6 110.327 197.775 110.503 197.775 110.72V121.034C197.775 121.251 197.6 121.427 197.382 121.427H195.94C195.723 121.427 195.547 121.251 195.547 121.034V110.72C195.547 110.503 195.723 110.327 195.94 110.327Z" fill="#1CB23D"/>
<path opacity="0.5" d="M158.052 98.5733H159.495C159.712 98.5733 159.887 98.7493 159.887 98.9663V121.034C159.887 121.251 159.712 121.427 159.495 121.427H158.052C157.835 121.427 157.66 121.251 157.66 121.034V98.9663C157.66 98.7493 157.835 98.5733 158.052 98.5733Z" fill="#1CB23D"/>
<path d="M160.28 106.987H161.722C161.939 106.987 162.115 107.163 162.115 107.38V121.034C162.115 121.251 161.939 121.427 161.722 121.427H160.28C160.063 121.427 159.887 121.251 159.887 121.034V107.38C159.887 107.163 160.063 106.987 160.28 106.987Z" fill="#1CB23D"/>
<path opacity="0.5" d="M175.882 102.138H177.324C177.541 102.138 177.717 102.314 177.717 102.531V121.034C177.717 121.251 177.541 121.427 177.324 121.427H175.882C175.665 121.427 175.489 121.251 175.489 121.034V102.531C175.489 102.314 175.665 102.138 175.882 102.138Z" fill="#1CB23D"/>
<path d="M178.11 104.322H179.552C179.769 104.322 179.945 104.498 179.945 104.715V121.034C179.945 121.251 179.769 121.427 179.552 121.427H178.11C177.893 121.427 177.717 121.251 177.717 121.034V104.715C177.717 104.498 177.893 104.322 178.11 104.322Z" fill="#1CB23D"/>
<path opacity="0.5" d="M166.967 93.0936H168.41C168.627 93.0936 168.802 93.2695 168.802 93.4865V121.034C168.802 121.251 168.627 121.427 168.41 121.427H166.967C166.75 121.427 166.574 121.251 166.574 121.034V93.4865C166.574 93.2695 166.75 93.0936 166.967 93.0936Z" fill="#1CB23D"/>
<path d="M169.195 94.4585H170.637C170.854 94.4585 171.03 94.6345 171.03 94.8515V121.034C171.03 121.251 170.854 121.427 170.637 121.427H169.195C168.978 121.427 168.802 121.251 168.802 121.034V94.8515C168.802 94.6345 168.978 94.4585 169.195 94.4585Z" fill="#1CB23D"/>
<path opacity="0.5" d="M149.137 93.0936H150.579C150.796 93.0936 150.972 93.2695 150.972 93.4865V121.034C150.972 121.251 150.796 121.427 150.579 121.427H149.137C148.92 121.427 148.744 121.251 148.744 121.034V93.4865C148.744 93.2695 148.92 93.0936 149.137 93.0936Z" fill="#1CB23D"/>
<path d="M151.365 101.993H152.807C153.024 101.993 153.2 102.169 153.2 102.386V121.034C153.2 121.251 153.024 121.427 152.807 121.427H151.365C151.148 121.427 150.972 121.251 150.972 121.034V102.386C150.972 102.169 151.148 101.993 151.365 101.993Z" fill="#1CB23D"/>
<path opacity="0.5" d="M140.222 104.467H141.665C141.882 104.467 142.057 104.643 142.057 104.86V121.034C142.057 121.251 141.882 121.427 141.665 121.427H140.222C140.005 121.427 139.83 121.251 139.83 121.034V104.86C139.83 104.643 140.005 104.467 140.222 104.467Z" fill="#1CB23D"/>
<path d="M142.45 110.327H143.892C144.109 110.327 144.285 110.503 144.285 110.72V121.034C144.285 121.251 144.109 121.427 143.892 121.427H142.45C142.233 121.427 142.057 121.251 142.057 121.034V110.72C142.057 110.503 142.233 110.327 142.45 110.327Z" fill="#1CB23D"/>
<path d="M266.182 119.734C267.28 119.734 268.363 119.469 269.337 118.96C270.311 118.452 271.147 117.716 271.775 116.814C272.404 115.913 272.805 114.873 272.945 113.783C273.084 112.694 272.959 111.586 272.579 110.555C272.193 109.509 263.11 84.8755 261.387 80.4366L248.673 85.3694C249.641 87.8651 253.149 97.3245 255.968 104.945L251.285 104.436L249.812 117.994L265.444 119.693C265.689 119.72 265.935 119.734 266.182 119.734Z" fill="#1CB23D"/>
<path d="M251.614 224.201C251.614 224.201 250.536 229.787 245.305 230.1C240.074 230.412 241.209 234.578 241.209 234.578H261.198V224.591L251.614 224.201Z" fill="#1CB33D"/>
<path d="M257.779 122.288C257.779 122.288 257.717 120.609 257.73 124.418C257.779 138.629 258.026 154.86 258.629 164.358C259.597 179.627 262.08 227.767 262.08 227.767L248.945 227.657L236.214 121.711L257.779 122.288Z" fill="#262626"/>
<path d="M228.229 224.201C228.229 224.201 227.152 229.787 221.921 230.1C216.69 230.412 217.824 234.578 217.824 234.578H237.814V224.591L228.229 224.201Z" fill="#1CB33D"/>
<path d="M221.869 123.392C221.869 123.392 220.706 171.959 220.876 174.333L225.761 227.398L238.679 227.637L237.421 172.413C237.421 172.413 238.309 157.179 241.989 143.034C243.872 135.774 245.006 128.34 245.371 120.848L221.869 123.392Z" fill="#262626"/>
<path d="M257.922 122.287L257.965 122.289C257.965 122.289 257.934 121.461 257.922 122.287Z" fill="#333333"/>
<path d="M220.02 96.4336C220.291 99.6161 221.609 119.472 221.869 123.392H257.764C257.967 119.856 258.878 104.396 259.647 97.4823C260.381 90.8848 261.821 87.5815 260.765 85.6312C259.04 82.4434 254.327 80.6013 251.113 80.1661C249.15 79.9004 246.198 79.71 246.198 79.71C246.198 79.71 245.948 84.7661 239.989 85.0475C231.876 85.4295 232.418 79.71 232.378 79.71C231.063 79.71 223.41 80.328 221.719 81.6306C218.759 83.9089 219.445 89.6893 220.02 96.4336Z" fill="#1CB33D"/>
<path d="M219.525 92.4456C219.494 92.4457 219.465 92.4341 219.443 92.4131C219.421 92.3922 219.407 92.3636 219.405 92.3332L219.117 87.2794C219.115 87.2478 219.126 87.2168 219.147 87.1932C219.168 87.1695 219.198 87.1552 219.229 87.1534C219.261 87.1519 219.292 87.1629 219.315 87.1839C219.339 87.2049 219.353 87.2343 219.355 87.2658L219.645 92.3193C219.647 92.3509 219.636 92.382 219.615 92.4056C219.594 92.4292 219.564 92.4435 219.533 92.4454L219.525 92.4456Z" fill="#0C0C0C"/>
<path d="M249.278 72.7831C252.652 73.0333 256.092 74.1298 258.626 76.3724C262.447 79.7547 262.107 81.8695 260.2 91.2369C258.558 99.297 259.209 102.819 258.111 117.692C258.079 118.13 258.01 119.037 258.01 119.037L221.914 118.977C221.914 118.977 218.532 99.2439 216.665 90.1425C215.245 83.2233 211.515 74.8237 227.241 73.1308C227.283 73.1266 239.896 72.0874 249.278 72.7831Z" fill="#1CB23D"/>
<path d="M175.35 65.3219C177.05 65.3213 178.707 64.7862 180.087 63.7922C181.466 62.7981 182.498 61.3956 183.037 59.7828C183.575 58.1701 183.593 56.4288 183.088 54.8053C182.583 53.1819 181.58 51.7584 180.221 50.7363C178.862 49.7141 177.216 49.1451 175.516 49.1096C173.816 49.0742 172.148 49.5741 170.748 50.5386C169.348 51.5032 168.286 52.8836 167.714 54.4846C167.141 56.0856 167.086 57.8261 167.557 59.4599C168.047 61.1489 169.071 62.6334 170.476 63.6905C171.881 64.7476 173.591 65.3201 175.35 65.3219ZM175.356 50.9239C176.952 50.9229 178.488 51.527 179.657 52.6145C180.825 53.7019 181.537 55.1918 181.65 56.7837C181.763 58.3756 181.269 59.9513 180.266 61.1929C179.264 62.4346 177.827 63.25 176.247 63.4747C174.667 63.6993 173.061 63.3167 171.752 62.4037C170.443 61.4908 169.528 60.1155 169.193 58.5551C168.858 56.9948 169.127 55.3654 169.946 53.9954C170.764 52.6254 172.072 51.6168 173.605 51.1728C174.174 51.0082 174.763 50.9244 175.356 50.9239Z" fill="#0A0A0A"/>
<path d="M182.196 75.313C182.344 75.313 182.491 75.2766 182.622 75.207C182.753 75.1374 182.865 75.0368 182.948 74.9139C183.032 74.7909 183.083 74.6495 183.099 74.5019C183.116 74.3543 183.095 74.205 183.04 74.0671L178.905 63.6918C178.813 63.4714 178.638 63.296 178.418 63.2034C178.198 63.1108 177.951 63.1084 177.729 63.1967C177.507 63.285 177.329 63.457 177.233 63.6755C177.137 63.894 177.131 64.1415 177.216 64.3646L181.351 74.7401C181.418 74.9091 181.535 75.0541 181.685 75.1563C181.836 75.2584 182.014 75.3131 182.196 75.313Z" fill="#0A0A0A"/>
<path d="M185.362 74.175L182.826 68.4865C182.77 68.3615 182.689 68.2495 182.588 68.1576C182.486 68.0657 182.367 67.9959 182.237 67.9527C182.107 67.9094 181.97 67.8938 181.833 67.9066C181.697 67.9194 181.565 67.9605 181.446 68.0271C181.229 68.1571 181.068 68.363 180.994 68.6049C180.92 68.8468 180.939 69.1075 181.047 69.3364L181.59 70.5562L178.12 67.5053C177.74 67.1598 177.052 66.9779 176.692 67.4296C176.542 67.5944 176.453 67.8051 176.438 68.0274C176.423 68.2496 176.484 68.4703 176.611 68.6534C176.607 68.6561 176.603 68.6593 176.6 68.6629C176.598 68.666 176.596 68.6694 176.594 68.6729L176.008 68.1393C175.9 68.0406 175.77 67.9673 175.63 67.9248C175.489 67.8824 175.341 67.8718 175.196 67.8938C175.051 67.9159 174.913 67.9701 174.791 68.0523C174.67 68.1346 174.568 68.243 174.494 68.3695C174.381 68.5712 174.34 68.8056 174.379 69.0334C174.418 69.2613 174.535 69.4688 174.708 69.6213L174.958 69.8485C174.955 69.8586 174.953 69.8693 174.954 69.8799C174.75 69.7657 174.512 69.7277 174.282 69.7729C174.053 69.818 173.847 69.9433 173.701 70.1263C173.548 70.3313 173.477 70.5865 173.504 70.8411C173.53 71.0957 173.652 71.331 173.844 71.4999L174.463 72.0636C174.449 72.0618 174.434 72.0635 174.421 72.0684C174.407 72.0734 174.395 72.0816 174.385 72.0922C174.374 72.1054 174.367 72.1215 174.365 72.1386C174.155 72.0873 173.934 72.1064 173.736 72.1929C173.538 72.2795 173.374 72.4286 173.269 72.6175C173.163 72.8183 173.127 73.049 173.168 73.2724C173.21 73.4958 173.325 73.6987 173.496 73.8482L178.721 78.6054C179.452 79.2709 180.365 79.7029 181.343 79.8461C182.322 79.9893 183.32 79.8371 184.211 79.4091C184.98 79.04 185.574 78.3859 185.868 77.5856C186.161 76.7854 186.132 75.9022 185.784 75.1237L185.362 74.175Z" fill="#E98862"/>
<g opacity="0.2">
<path opacity="0.2" d="M180.032 71.6896C180.016 71.7072 179.993 71.7177 179.969 71.719C179.946 71.7202 179.922 71.712 179.904 71.6962L176.607 68.7906C176.599 68.7826 176.591 68.7731 176.586 68.7623C176.581 68.7516 176.578 68.7399 176.577 68.728C176.576 68.7161 176.578 68.7041 176.582 68.6928C176.586 68.6816 176.592 68.6711 176.599 68.6622C176.607 68.6532 176.617 68.6459 176.628 68.6407C176.638 68.6354 176.65 68.6323 176.662 68.6316C176.674 68.6308 176.686 68.6325 176.697 68.6363C176.708 68.6402 176.719 68.6463 176.728 68.6542L180.024 71.5598C180.033 71.5677 180.041 71.5773 180.046 71.588C180.051 71.5988 180.054 71.6104 180.055 71.6223C180.056 71.6343 180.054 71.6462 180.05 71.6575C180.046 71.6688 180.04 71.6792 180.032 71.6882L180.032 71.6896Z" fill="#0C0C0C"/>
</g>
<g opacity="0.2">
<path opacity="0.2" d="M178.79 73.1791C178.774 73.1966 178.752 73.2072 178.728 73.2084C178.704 73.2096 178.681 73.2014 178.663 73.1856L174.984 69.9428C174.975 69.9349 174.967 69.9254 174.962 69.9146C174.957 69.9039 174.954 69.8922 174.953 69.8803C174.952 69.8684 174.954 69.8564 174.958 69.8451C174.962 69.8338 174.968 69.8234 174.976 69.8145C174.992 69.7971 175.014 69.7866 175.038 69.7851C175.062 69.7837 175.086 69.7913 175.104 69.8065L178.783 73.0491C178.792 73.057 178.8 73.0665 178.805 73.0773C178.81 73.088 178.813 73.0997 178.814 73.1116C178.815 73.1235 178.813 73.1355 178.809 73.1468C178.805 73.1581 178.799 73.1685 178.791 73.1774L178.79 73.1791Z" fill="#0C0C0C"/>
</g>
<g opacity="0.2">
<path opacity="0.2" d="M177.455 74.7999C177.439 74.8175 177.417 74.828 177.393 74.8292C177.369 74.8305 177.346 74.8223 177.328 74.8065L174.393 72.22C174.384 72.2121 174.377 72.2025 174.371 72.1917C174.366 72.181 174.363 72.1694 174.362 72.1574C174.362 72.1455 174.363 72.1336 174.367 72.1223C174.371 72.111 174.377 72.1005 174.385 72.0916C174.393 72.0826 174.402 72.0753 174.413 72.0701C174.424 72.0648 174.435 72.0617 174.447 72.061C174.459 72.0603 174.471 72.0619 174.483 72.0658C174.494 72.0696 174.504 72.0757 174.513 72.0836L177.448 74.6701C177.457 74.678 177.464 74.6876 177.47 74.6983C177.475 74.709 177.478 74.7207 177.479 74.7326C177.48 74.7445 177.478 74.7565 177.474 74.7678C177.47 74.7791 177.464 74.7895 177.456 74.7985L177.455 74.7999Z" fill="#0C0C0C"/>
</g>
<path d="M186.947 72.3284L202.323 89.6434L217.86 76.2016L226.783 86.5154L206.157 104.361L206.018 104.481C205.969 104.522 205.92 104.563 205.871 104.603C204.496 105.715 202.736 106.236 200.978 106.05C199.219 105.865 197.606 104.988 196.494 103.613L177.595 80.2566L186.947 72.3284Z" fill="#1CB23D"/>
<path d="M227.241 73.1315C227.283 73.1261 228.429 77.4375 237.37 76.7665C243.56 76.3028 245.069 72.0896 245.211 72.0896C244.543 71.9478 243.46 71.8005 243.163 71.6423C242.189 71.1186 241.479 70.481 241.121 69.1129C240.842 68.0429 240.699 63.924 240.699 61.8574L231.175 63.9977C231.307 66.3289 232.236 71.7332 228.98 72.6897C228.438 72.8479 227.854 72.9933 227.241 73.1315Z" fill="#E98862"/>
<path d="M231.504 68.581C235.258 68.8772 240.082 67.2917 240.998 62.282L241.825 57.7618C242.741 52.7521 240.853 48.2097 236.136 47.347C231.419 46.4844 227.15 49.9008 226.234 54.9105L225.868 56.9108C225.517 58.8339 224.805 68.0524 231.504 68.581Z" fill="#E98862"/>
<path d="M228.022 63.9819C228.696 60.5953 229.006 58.3359 228.97 55.9521C228.02 54.2868 228.27 52.3757 228.486 51.5498C227.555 52.0575 227.166 52.1135 226.29 52.1135C226.29 52.1135 227.86 45.8125 233.197 44.117C234.179 43.7352 236.683 43.2527 240.01 43.709C242.839 44.097 249.814 46.2127 250.811 54.0648V54.0694C250.844 54.3298 251.514 61.5645 252.849 65.0356C254.644 69.7019 257.164 71.1517 257.1 76.5354C257.018 83.4607 244.286 84.3826 236.606 83.8645C228.926 83.3465 224.641 80.8214 224.585 75.8306C224.523 70.2372 226.674 70.7569 228.022 63.9819Z" fill="#0A0A0A"/>
<path d="M228.02 61.1426C229.454 61.4046 230.896 60.0837 231.158 58.6503C231.42 57.2168 230.403 56.2136 228.97 55.9516L228.02 61.1426Z" fill="#E98862"/>
<path d="M217.527 94.6135C217.533 94.6135 217.539 94.6129 217.544 94.6118C217.556 94.6097 217.567 94.6052 217.577 94.5987C217.587 94.5921 217.596 94.5837 217.602 94.5738C217.609 94.564 217.614 94.5529 217.616 94.5412C217.619 94.5295 217.619 94.5174 217.617 94.5057L216.702 89.6578C216.7 89.6457 216.696 89.6341 216.689 89.6236C216.683 89.6132 216.675 89.6042 216.665 89.5971C216.655 89.59 216.643 89.585 216.631 89.5824C216.619 89.5798 216.607 89.5796 216.595 89.5818C216.583 89.5841 216.572 89.5888 216.561 89.5956C216.551 89.6023 216.543 89.6111 216.536 89.6214C216.529 89.6316 216.525 89.6431 216.522 89.6551C216.52 89.6671 216.52 89.6795 216.523 89.6914L217.438 94.5397C217.442 94.5604 217.453 94.5791 217.469 94.5926C217.486 94.606 217.506 94.6134 217.527 94.6135Z" fill="#0C0C0C"/>
<path d="M258.01 119.128C258.033 119.128 258.056 119.119 258.073 119.103C258.09 119.086 258.1 119.064 258.101 119.041L259.232 89.6779C259.232 89.666 259.23 89.6541 259.226 89.6429C259.222 89.6316 259.216 89.6213 259.208 89.6126C259.2 89.6038 259.19 89.5967 259.179 89.5917C259.168 89.5867 259.156 89.5838 259.144 89.5834C259.121 89.5836 259.098 89.5926 259.08 89.6088C259.063 89.625 259.052 89.6471 259.05 89.6708L257.919 119.034C257.918 119.046 257.92 119.057 257.924 119.069C257.929 119.08 257.935 119.09 257.943 119.099C257.951 119.108 257.961 119.115 257.972 119.12C257.983 119.125 257.994 119.128 258.006 119.128H258.01Z" fill="#0C0C0C"/>
<path d="M203.355 91.135C203.372 91.135 203.388 91.1303 203.402 91.1214C203.417 91.1125 203.428 91.0998 203.436 91.0847C203.444 91.0696 203.447 91.0527 203.445 91.0359C203.444 91.0191 203.438 91.003 203.427 90.9895L202.395 89.5893C202.381 89.5704 202.359 89.5579 202.336 89.5546C202.312 89.5512 202.288 89.5572 202.269 89.5714C202.25 89.5855 202.237 89.6066 202.233 89.6301C202.229 89.6537 202.235 89.6777 202.249 89.6972L203.282 91.0981C203.29 91.1095 203.301 91.1187 203.314 91.1251C203.327 91.1316 203.341 91.1349 203.355 91.135Z" fill="#0C0C0C"/>
<path d="M82.6864 228.073V227.149H74.9999V235.149H95.9999C95.9999 228.996 87.3229 227.662 82.6864 228.073Z" fill="#1CB23D"/>
<path d="M108.32 228.073V227.149H101V235.149H121C121 228.996 112.736 227.662 108.32 228.073Z" fill="#1CB23D"/>
<path d="M110.947 125.149H72.9999L75.5789 170.064L72.9999 228.149H85.8947L91.0526 170.064L93.6315 157.231L97.3157 170.064V228.149H110.947L115 168.038L110.947 125.149Z" fill="#2F2F2F"/>
<path d="M73.3504 125.149L69.0974 87.3301C67.2859 83.0754 66.4038 74.4242 77.3671 73.8569H103.358C104.206 73.8569 105.05 73.8945 105.877 73.9728C107.676 73.8614 109.159 73.6986 110.152 73.4679C117.039 71.8668 117.192 76.4718 116.932 83.5143C113.488 85.2401 112.121 88.5554 111.522 91.3583C111.394 93.1301 111.169 94.7123 110.918 95.904V125.149H73.3504Z" fill="#1CB23D"/>
<path d="M144.775 59.462C145.354 60.0352 144.967 60.7154 144.701 60.9838L141.517 64.9685L139.939 64.7722C140.018 64.4515 140.09 63.7564 140.425 63.13C140.759 62.5035 142.45 60.4828 143.254 59.5507C143.52 59.2823 144.197 58.8887 144.775 59.462Z" fill="#E98862"/>
<path d="M145.88 69.9357L138.783 72.0884L136.511 66.852L144.22 61.1236L150.979 58.191C151.308 58.0336 152.057 57.9269 152.417 58.7589C152.759 59.5452 149.598 61.1848 148.964 61.4741L149.771 61.1236C150.049 60.9149 150.703 60.728 151.103 61.6492C151.502 62.5704 150.919 62.9204 150.577 62.9803L149.426 63.4798C149.772 63.3295 150.556 63.2367 150.917 64.0686C151.278 64.9005 150.675 65.4093 150.328 65.5597L149.028 66.1237C149.375 65.9733 150.158 65.8805 150.519 66.7124C150.88 67.5443 150.277 68.0531 149.93 68.2035L145.88 69.9357Z" fill="#E98862"/>
<path d="M149.086 61.4345L144.716 62.8751M149.758 63.4513L144.716 64.8919M149.422 66.0444L144.38 67.485" stroke="#E1845F" stroke-width="0.3"/>
<path d="M74.9522 46.1789C69.7011 46.1789 79.2424 58.1038 80.8636 58.9905L89.6267 51.2459C89.6267 51.2459 97.7662 47.5478 98.5056 47.7258C99.2451 47.9037 101.402 37.4284 101.402 37.4284H98.8229V34L95.8749 37.4284L94.2167 34L90.3476 35.0827C71.1861 34 79.0773 46.1789 74.9522 46.1789Z" fill="black"/>
<path d="M98.1391 73.5891C92.0537 78.6332 84.3211 76.4821 82.5196 74.0055C83.5395 72.1758 83.8248 72.6208 83.8249 66.0547C83.8251 59.2529 79.7673 59.8689 79.424 58.0942C79.0808 56.3196 80.0864 55.5898 81.5483 55.5898C81.5483 55.5898 83.0323 55.5898 82.5847 51.0619C81.8388 49.0857 96.4501 43.6843 98.1391 46.7353C99.8281 49.7862 104.255 62.88 93.6061 68.8508C94.4281 72.2788 96.9706 73.438 98.1391 73.5891Z" fill="#E98862"/>
<path d="M85.6819 51.9059C86.3235 51.2636 88.1078 50.0779 90.1129 50.4731M94.1859 50.4731C94.5589 49.9791 95.8777 49.1391 98.1693 49.732" stroke="black" stroke-width="0.7"/>
<path d="M92.8431 52.2518C93.7383 54.0799 95.6941 57.5892 94.1427 57.6614" stroke="black" stroke-width="0.7"/>
<path d="M92.1098 61.8561C93.2477 62.1031 95.8026 62.2966 96.9187 61.095" stroke="black" stroke-width="0.7"/>
<ellipse rx="0.49972" ry="0.701867" transform="matrix(0.969809 -0.243867 0.202094 0.979366 89.0661 54.3911)" fill="black"/>
<ellipse rx="0.49972" ry="0.701867" transform="matrix(0.969809 -0.243867 0.202094 0.979366 97.2023 53.5818)" fill="black"/>
<path d="M87.6983 68.3801C88.8232 69.1235 92.4431 68.874 93.5993 68.8603L93.9152 69.8767C91.8623 71.6937 88.6838 69.2338 87.6983 68.3801C87.6364 68.3392 87.5821 68.2953 87.5361 68.2482C87.2917 67.9977 87.3822 68.1063 87.6983 68.3801Z" fill="#C7704E"/>
<rect x="141.453" y="73.6533" width="50.9281" height="11.3064" transform="rotate(158.502 141.453 73.6533)" fill="#1CB23D"/>
<path d="M101.077 92.0858C101.656 92.659 101.268 93.3392 101.002 93.6076L97.8187 97.5924L96.2412 97.396C96.3201 97.0753 96.3921 96.3802 96.7262 95.7538C97.0603 95.1273 98.752 93.1066 99.556 92.1745C99.822 91.9061 100.499 91.5126 101.077 92.0858Z" fill="#E98862"/>
<rect x="100.199" y="83.9742" width="14.1179" height="19.4962" rx="3" fill="#303030"/>
<path d="M100.165 103.899L93.0675 106.052L90.7956 100.815L98.5046 95.0869L105.264 92.1543C105.593 91.9969 106.341 91.8903 106.702 92.7222C107.042 93.5043 106.541 93.9696 106.198 94.1329L107.026 93.7737C107.303 93.5651 107.957 93.3781 108.357 94.2993C108.757 95.2205 108.173 95.5705 107.832 95.6304L106.68 96.13C107.027 95.9796 107.81 95.8868 108.171 96.7187C108.532 97.5506 107.929 98.0594 107.582 98.2098L106.282 98.7738C106.629 98.6234 107.413 98.5306 107.774 99.3625C108.135 100.194 107.531 100.703 107.185 100.854L100.165 103.899Z" fill="#E98862"/>
<path d="M105.242 94.7307L100.872 96.4114M105.914 97.0836L100.872 98.7643M105.578 100.109L100.536 101.79" stroke="#E1845F" stroke-width="0.3"/>
<rect x="59.5712" y="112.724" width="40.1521" height="15.1573" rx="7.57864" transform="rotate(-75.2714 59.5712 112.724)" fill="#1CB23D"/>
<path d="M60.9078 112.146C59.8551 108.822 61.6968 105.273 65.0213 104.22L93.1716 95.3069L96.9837 107.346L68.8333 116.259C65.5089 117.312 61.9605 115.47 60.9078 112.146Z" fill="#1CB23D"/>
<path d="M81.799 90.1495L78.8249 100.082L93.3649 95.778L96.9999 107.366L72.9999 115.149" stroke="black" stroke-width="0.3"/>
</svg>
