<svg width="142" height="23" viewBox="0 0 142 23" fill="none" xmlns="http://www.w3.org/2000/svg">
<path d="M34.9302 18.0386H36.6367V10.524H36.688L39.7349 18.0386H41.0166L44.0635 10.524H44.1221V18.0386H45.8213V7.46979H43.6387L40.4014 15.5411H40.3501L37.1128 7.46979H34.9302V18.0386ZM48.4727 9.16168C49.0439 9.16168 49.4834 8.70758 49.4834 8.16559C49.4834 7.60895 49.0439 7.16217 48.4727 7.16217C47.9014 7.16217 47.4546 7.60895 47.4546 8.16559C47.4546 8.70758 47.9014 9.16168 48.4727 9.16168ZM47.5571 18.0386H49.3809V10.275H47.5571V18.0386ZM50.9849 18.0386H52.8086V7.46979H50.9849V18.0386ZM55.3281 9.16168C55.8994 9.16168 56.3389 8.70758 56.3389 8.16559C56.3389 7.60895 55.8994 7.16217 55.3281 7.16217C54.7568 7.16217 54.3101 7.60895 54.3101 8.16559C54.3101 8.70758 54.7568 9.16168 55.3281 9.16168ZM54.4126 18.0386H56.2363V10.275H54.4126V18.0386ZM61.2021 18.1924C63.231 18.1924 64.3735 16.9913 64.6152 15.7974L64.6372 15.7169H62.9307L62.916 15.7681C62.7402 16.2881 62.147 16.7715 61.2388 16.7715C60.0522 16.7715 59.3052 15.9659 59.2759 14.6036H64.7104V14.0176C64.7104 11.6739 63.3335 10.1138 61.1143 10.1138C58.895 10.1138 57.4668 11.7252 57.4668 14.1714V14.1788C57.4668 16.647 58.873 18.1924 61.2021 18.1924ZM61.1362 11.5421C62.103 11.5421 62.8062 12.1573 62.938 13.3878H59.2979C59.4443 12.1939 60.1694 11.5421 61.1362 11.5421ZM68.5337 18.1924C69.7056 18.1924 70.5039 17.6505 70.9067 16.8228H70.9434V18.0386H72.7671V10.275H70.9434V14.772C70.9434 15.9 70.2769 16.6544 69.2295 16.6544C68.1895 16.6544 67.6768 16.0318 67.6768 14.9332V10.275H65.853V15.2921C65.853 17.0938 66.8271 18.1924 68.5337 18.1924ZM77.4546 18.0386H79.3369V10.6046H79.3735L84.5371 18.0386H86.2217V7.46979H84.3467V14.8746H84.3027L79.1538 7.46979H77.4546V18.0386ZM90.0083 18.1705C91.0337 18.1705 91.8979 17.6578 92.3447 16.8448H92.3887V18.0386H94.2124V12.6993C94.2124 11.1392 92.96 10.1138 91.019 10.1138C89.0488 10.1138 87.855 11.1465 87.7451 12.5235L87.7378 12.6114H89.4297L89.4443 12.5455C89.5615 11.9742 90.0889 11.5714 90.9531 11.5714C91.876 11.5714 92.3887 12.0474 92.3887 12.8311V13.3658L90.3599 13.4903C88.4775 13.6075 87.4082 14.4351 87.4082 15.8121V15.8267C87.4082 17.211 88.4556 18.1705 90.0083 18.1705ZM89.2246 15.7535V15.7462C89.2246 15.1309 89.7153 14.7427 90.6162 14.6841L92.3887 14.5743V15.1602C92.3887 16.0831 91.5977 16.7789 90.5503 16.7789C89.752 16.7789 89.2246 16.3907 89.2246 15.7535ZM97.75 18.0386H99.7568L102.489 10.275H100.584L98.79 16.3467H98.7461L96.9443 10.275H95.0034L97.75 18.0386ZM104.298 9.16168C104.869 9.16168 105.309 8.70758 105.309 8.16559C105.309 7.60895 104.869 7.16217 104.298 7.16217C103.727 7.16217 103.28 7.60895 103.28 8.16559C103.28 8.70758 103.727 9.16168 104.298 9.16168ZM103.382 18.0386H105.206V10.275H103.382V18.0386ZM110.26 20.7559C112.508 20.7559 113.922 19.5767 113.922 17.8189V10.275H112.098V11.5933H112.054C111.615 10.6998 110.765 10.1138 109.667 10.1138C107.704 10.1138 106.437 11.6226 106.437 14.0762V14.0836C106.437 16.5005 107.689 17.9947 109.637 17.9947C110.75 17.9947 111.629 17.4673 112.062 16.6397H112.098V17.7603C112.098 18.7491 111.446 19.379 110.26 19.379C109.308 19.379 108.685 19.0421 108.487 18.5953L108.465 18.5367H106.671L106.686 18.6026C106.905 19.8184 108.202 20.7559 110.26 20.7559ZM110.208 16.5884C109.037 16.5884 108.297 15.6436 108.297 14.1129V14.1055C108.297 12.5967 109.037 11.6519 110.208 11.6519C111.336 11.6519 112.105 12.6114 112.105 14.1129V14.1202C112.105 15.629 111.344 16.5884 110.208 16.5884ZM117.708 18.1705C118.734 18.1705 119.598 17.6578 120.045 16.8448H120.089V18.0386H121.913V12.6993C121.913 11.1392 120.66 10.1138 118.719 10.1138C116.749 10.1138 115.555 11.1465 115.445 12.5235L115.438 12.6114H117.13L117.145 12.5455C117.262 11.9742 117.789 11.5714 118.653 11.5714C119.576 11.5714 120.089 12.0474 120.089 12.8311V13.3658L118.06 13.4903C116.178 13.6075 115.108 14.4351 115.108 15.8121V15.8267C115.108 17.211 116.156 18.1705 117.708 18.1705ZM116.925 15.7535V15.7462C116.925 15.1309 117.416 14.7427 118.316 14.6841L120.089 14.5743V15.1602C120.089 16.0831 119.298 16.7789 118.25 16.7789C117.452 16.7789 116.925 16.3907 116.925 15.7535ZM126.271 18.1924C126.637 18.1924 126.959 18.1558 127.171 18.1265V16.7569C127.047 16.7642 126.908 16.7862 126.732 16.7862C126.065 16.7862 125.729 16.5445 125.729 15.7828V11.6812H127.171V10.275H125.729V8.30475H123.875V10.275H122.777V11.6812H123.875V15.9366C123.875 17.5333 124.645 18.1924 126.271 18.1924ZM131.712 18.1924C133.99 18.1924 135.47 16.6763 135.47 14.1568V14.1422C135.47 11.6373 133.968 10.1138 131.705 10.1138C129.449 10.1138 127.955 11.6519 127.955 14.1422V14.1568C127.955 16.669 129.427 18.1924 131.712 18.1924ZM131.72 16.7203C130.555 16.7203 129.815 15.7901 129.815 14.1568V14.1422C129.815 12.5308 130.57 11.5933 131.705 11.5933C132.862 11.5933 133.609 12.5235 133.609 14.1422V14.1568C133.609 15.7828 132.87 16.7203 131.72 16.7203ZM136.642 18.0386H138.465V13.5342C138.465 12.3843 139.088 11.7325 140.121 11.7325C140.428 11.7325 140.707 11.7764 140.86 11.835V10.1871C140.721 10.1505 140.509 10.1138 140.282 10.1138C139.388 10.1138 138.744 10.6778 138.502 11.6153H138.465V10.275H136.642V18.0386Z" fill="black"/>
<path d="M10.4784 8.20748V12.0072C10.4784 12.0072 8.35055 10.7913 7.5906 9.27141C6.83064 7.75151 6.67866 6.53559 5.61472 5.01568C4.55079 3.49578 1.05501 3.95175 0.447051 5.01568C-0.16091 6.07961 -0.3129 8.05549 1.05501 9.27141C2.42293 10.4873 4.85477 11.3993 4.85477 11.3993C4.85477 11.3993 6.52666 12.6152 8.04657 14.4391C9.56648 16.263 9.26248 19.3028 12.3023 19.3028C15.3421 19.3028 15.6461 15.655 16.1021 14.4391C16.558 13.2232 18.0779 12.3112 18.8379 11.3993C19.5978 10.4873 22.0297 10.9433 23.5496 9.27141C25.0695 7.59952 24.4615 6.07961 23.8536 5.01568C23.2456 3.95175 20.6618 2.73583 18.8379 5.01568C17.014 7.29554 17.3269 8.51146 16.862 9.27141C16.3971 10.0314 13.6702 12.0072 13.6702 12.0072V8.20748C13.6702 6.53559 15.0381 5.31966 15.3421 3.49578C15.6461 1.67189 14.1262 0 12.3023 0C10.4784 0 8.50254 1.06393 9.1105 3.49578C9.71847 5.92762 10.4784 6.2316 10.4784 8.20748Z" fill="black"/>
<path d="M10.3353 20.5187C4.13413 19.0596 6.33292 16.8709 8.20747 15.959L7.14354 14.2871C-2.09748 18.4212 5.42098 21.1773 10.3353 22.0386V20.5187Z" fill="#323232"/>
<path d="M14.2871 20.5187C20.4883 19.0596 18.2895 16.8709 16.415 15.959L17.4789 14.2871C26.7199 18.4212 19.2015 21.1773 14.2871 22.0386V20.5187Z" fill="#323232"/>
</svg>
